<?xml version="1.0" encoding="UTF-8"?><svg id="Layer_1" xmlns="http://www.w3.org/2000/svg" viewBox="0 0 910.34 819.56"><defs><style>.cls-1{fill:#fac75d;}.cls-2{fill:#20a2fc;}.cls-3{fill:#d6881f;}.cls-4{fill:#fdfdfd;}.cls-5{fill:#174c78;}.cls-6{fill:#101f2a;}</style></defs><path class="cls-6" d="M428.68,818.4c-3.76-.18-7.52-.36-11.28-.54-1.04-1.54-2.35-1.35-3.74-.56-3.1-.19-6.21-.38-9.31-.57-1.86-1.06-3.61-3.06-5.88-.72-1.73,.46-3.43,.35-5.12-.19-1.78-1.59-3.71-1.28-5.68-.45-1.42-.11-2.85-.22-4.27-.33-1.66-2.17-3.68-1.45-5.71-.72-5.5-.27-11.02-.29-16.4-1.65-3.77-1.4-7.55-2.66-11.62-1.19-1.42-.13-2.84-.27-4.26-.4-1.3-2.01-2.99-1.48-4.72-.74-3.89,.18-7.68-.34-11.35-1.68-1.48-2.4-3.48-2.32-5.7-1.21-1.06-.18-2.12-.35-3.17-.53-.67-1.5-1.63-1.64-2.82-.58-2.87-.11-5.65-.63-8.32-1.68-1.98-1.76-4.11-2.64-6.66-1.19-1.07-.15-2.15-.29-3.22-.44-.93-1.8-2.28-1.59-3.75-.77-11.06-1.66-21.7-5-32.41-8.07-2.84-2.17-6.1-2.93-9.61-2.85-.73-.19-1.46-.37-2.19-.56-.51-1.07-1.34-1.21-2.36-.8-2.23-.69-4.47-1.38-6.7-2.07-.49-1.28-1.37-1.25-2.41-.74-27.65-8.18-54.65-18.07-80.85-30.15-35.12-16.2-68.2-35.69-98.01-60.43-22.51-18.68-42.19-39.82-54.09-67.03-10.77-24.62-9.51-48.24,5.85-71.07,10.94-16.27,25.21-28.86,41.16-39.52,18.69-12.49,38.36-23.43,59.72-30.82,6.37-2.2,12.77-4.44,19.33-6.24,11.12-3.05,21.97-7.08,33.16-10,5.32-1.39,10.73-2.43,16.16-2.68,3.03-.14,4.13-1.11,4.74-3.71,2.5-10.67,5.42-21.25,6.56-32.2,1.65-15.83,10.59-25.86,25.25-30.9,4.82-1.66,7.65-3.91,9.01-9.17,5.74-22.29,13.9-43.74,23.9-64.48,2.23-4.63,5.02-8.92,9.23-11.88,2.88-2.02,3.2-4.22,2.33-7.26-2.01-7.02-4.23-13.94-5.18-21.29-1.65-12.74,1.1-23.9,8.52-34.42,7.19-10.18,13.66-20.89,20.15-31.54,16.32-26.75,33.47-52.93,53.16-77.34,16.44-20.38,34.21-39.47,54.15-56.56,20.77-17.8,42.58-34.21,66.54-47.29,26.45-14.44,54.49-25.24,84.03-31.93,11.74-2.66,23.45-5.33,35.4-6.81,1.19,.34,2.33,.46,3.13-.78,2.08-.23,4.16-.45,6.24-.68,1.39,.95,2.69,1.1,3.79-.45,7.4-.91,14.8-.48,22.2,.04,1.76,1.55,3.66,1.37,5.61,.42,8.17-.19,16.18,1.32,24.24,2.35,.7,1.52,1.66,1.66,2.84,.51,1.7,.23,3.5-.2,5.08,.77,.32,1.31,1.15,1.33,2.17,.86,2.68-.12,5.4-.59,7.88,.94,.44,1.12,1.03,1.45,1.88,.35,2.9-.23,5.48,.92,8.11,1.86,.55,1.74,1.84,1.19,3.02,.97,4.88,.19,9.56,1.27,14.04,3.22,.13,.64,.48,.88,1.11,.64,1.18-.21,2.37-.47,3.05,.93,1.17,.6,2.21,1.58,3.7,1.27,16.14,4.42,32.12,9.22,47.34,16.34,35.52,16.62,66.81,39.2,93.56,67.73,22.43,23.92,39.93,51.14,49.36,82.89,6.32,21.26,8.5,42.92,5.01,65.06-7.79,49.48-35.73,82.08-82.54,98.7-11.94,4.24-24.66,5.78-37.31,4.47-11.89-1.23-23.32-4.35-34.25-9.79-8.83-4.4-17.2-9.12-23.82-16.4-13.37-14.69-20.92-31.61-18.82-51.97,1.36-.3,1.68-.91,.58-1.94,.68-10.19,4.39-19.35,11.19-26.73,13.73-14.91,30.83-21.02,51.03-17.31,7.47,1.37,12.75,6.1,17.22,11.91,.91,1.19,2.17,2.43,1.2,4-1.08,1.74-2.82,.59-4.09,.24-9.95-2.81-18.88-.17-26.7,5.74-7.86,5.94-13.17,21.7-4.52,33.75,7.88,10.99,18.51,13.6,31.1,11.54,22.04-3.61,30.97-18.11,33.14-39.94,1.38-13.89-.01-27.13-7.45-39.47-6.97-11.55-16.42-20.47-27.72-27.41-14.71-9.03-30.47-14.77-48.18-12.54-21.59,2.72-42.2,8.12-59.85,21.74-4.3,3.32-7.81,7.17-10.13,12.1-6.16,13.08-12.36,26.15-18.5,39.24-4.63,9.88-3.61,16.16,3.91,23.83,5.71,5.82,11.47,11.6,17.32,17.29,3.92,3.81,4.39,7.98,1.83,12.62-2.49,4.52-4.97,9.04-8.35,12.99-5.85,6.83-4.71,15.51,2.87,20.58,3.71,2.49,7.74,4.51,11.63,6.73,.71,.41,1.46,.77,2.19,1.14,10.08,5.13,11.93,12.77,4.83,21.57-1.98,2.46-2.14,4.19-.96,7.01,2.55,6.1,4.62,12.4,6.77,18.66,1.57,4.58,4.67,7.56,9.09,9.31,.77,.31,1.51,.7,2.3,.95,17.57,5.53,25.07,18.42,26.53,35.91,.82,9.76,3.07,19.29,5.29,28.81,.74,3.17,2.2,4.42,5.74,4.76,17.41,1.66,34.32,5.91,50.82,11.52,23.17,7.89,45.93,16.97,66.35,30.69,19.66,13.2,39.24,26.65,53.07,46.6,13.73,19.81,18.04,40.72,9.74,64.15-7.92,22.37-21.28,40.92-37.37,57.79-19.64,20.59-42.37,37.35-66.55,52.16-8.92,5.47-18.3,10.2-27.47,15.26-1.18-.35-2.02-.05-2.33,1.24-1.19,.63-2.37,1.27-3.56,1.9-1.51-.22-3.03-.48-3.14,1.78-2.02,1.03-4.04,2.06-6.05,3.09-1.06-.35-1.87-.16-2.25,1-1.6,.64-3.2,1.28-4.8,1.92-1.79,.61-4.56-1.07-5.2,2.23-2.3,1.06-4.61,2.12-6.91,3.17-1.62-1.79-1.66-.02-2.08,.92-1.27,.58-2.53,1.17-3.8,1.75-1.04-.34-1.81-.09-2.19,1.01-2.25,1-4.5,2-6.75,3-1.04-.33-1.86-.14-2.26,1-3.24,1.34-6.47,2.67-9.7,4.01-.99-.35-1.82-.2-2.34,.81-2.22,1.32-4.61,2.17-7.18,2.51-3.91,.15-7.45,1.46-10.79,3.41-.72,.22-1.44,.43-2.16,.65-2.29-1.62-3.35,.7-4.87,1.52-1.19,.4-2.39,.8-3.58,1.2-4.21-.24-7.74,1.67-11.28,3.57-.88,.18-1.75,.35-2.63,.53-1.08-.55-1.94-.41-2.46,.78-.73,.15-1.47,.29-2.2,.44-.95-1.01-1.47-.52-1.82,.53-2.8,.96-5.59,1.96-8.58,2.14-1.08-.47-1.92-.28-2.4,.88-4.19,1.07-8.38,2.13-12.57,3.2-1.02-.53-1.88-.5-2.42,.68-1.06,.22-2.13,.43-3.19,.65-1.89-.95-3.28,.19-4.72,1.14-.67,.07-1.34,.14-2.01,.21-1.19-.25-2.28-.2-3.01,.97-.86,.15-1.72,.29-2.57,.44-1.02-.57-1.92-.63-2.51,.6-.97,.75-2.1,.64-3.22,.61-2.53-1.23-4.53,.32-6.66,1.25-2.16,.78-4.27,1.79-6.66,1.48-1.35-.47-2.71-.97-3.39,.95-1.1,.12-2.19,.24-3.29,.35-2.21-1.28-3.92-.05-5.64,1.14-1.29,.12-2.58,.24-3.86,.35-1.85-.32-3.78-1.08-5.25,.87-1.75,.16-3.5,.33-5.24,.49-1.71-.67-3.43-1.42-4.74,.69-1.09,.13-2.17,.26-3.26,.39-1.64-.98-3.21-1.09-4.66,.36-.59,.09-1.19,.19-1.78,.28-1.19-.54-2.29-.54-3.18,.58-1.59,.16-3.18,.32-4.77,.48-1.58-.51-3.14-.96-4.36,.72-1.7,.11-3.41,.22-5.11,.33-3.2-2.22-6.03-.59-8.86,.89-1.75,.14-3.51,.29-5.26,.43-1.01-1.11-1.93-.93-2.78,.2-1.07,.18-2.15,.37-3.22,.55-1.05-.97-1.91-.68-2.67,.38-2.54,.16-5.09,.32-7.63,.48-6.96-1.22-13.82,.62-20.73,.67-19.57,.12-39.15,.02-58.72,.05-1.6,0-3.32-.59-4.8,.59Zm237.78-357.71c-.64-.09-1.08,.16-1.31,.77-7.25,4.13-15.42,6.04-22.94,9.54-9.79,3.57-19.96,5.82-29.93,8.76-5.39,1.59-5.68,3.09-2.26,7.45,1.42,1.82,2.66,3.78,3.99,5.68-.24,1.56-.48,3.12-.72,4.68-.17,.52-.34,1.03-.52,1.55-.36,.43-1.94,.5-.43,1.47-3.02,5.32-6.04,10.64-9.06,15.96,0,0,.02-.08,.02-.08-.28,.11-.56,.21-.84,.32-2.34,1.02-3.06,3.3-4.13,5.31-.26,.04-.41,.2-.45,.46-1.33,.37-2.02,1.37-2.52,2.55-.22,.09-.37,.24-.46,.46-2.48,.65-3.05,3.15-4.58,4.72-.75,.73-1.5,1.46-2.25,2.19-.61,.63-1.23,1.27-1.84,1.9-.38,.36-.75,.72-1.13,1.08-.62,.62-1.24,1.24-1.86,1.86-.37,.37-.73,.74-1.1,1.11-4.27,3.66-8.93,6.94-11.83,11.95-.39,.38-.78,.77-1.17,1.15-1.93-.05-2.81,.94-2.8,2.82-.73,.74-1.46,1.48-2.19,2.22-1.01,.15-1.64,.71-1.91,1.69-4.29,4.09-8.58,8.18-12.87,12.26-.67,.64-1.84,1.06-1.07,2.31,2.44,4,2.15,8.86,4.07,13.02,.94,5.75,2.23,11.4,4.86,16.67,1.6,3.97,1.19,8.59,3.96,12.17,.14,.67-.37,1.57,.68,1.92,.48,.3,.96,.59,1.44,.89,4.18,.22,8.2-1.07,12.07-2.13,32.36-8.87,64.26-19.01,93.98-35,16.88-9.08,33.19-18.94,47.01-32.45,2-1.95,3.93-3.75,2.46-6.83-2.02-4.22-3.43-8.64-4.4-13.21-.53-2.51-1.58-2.77-3.2-.81-4.9,5.91-11.1,10.44-16.71,15.59-1.33,.6-2.59,1.28-3.85,2.08-13.96,8.97-28.33,17.27-43.92,23.02-15.16,5.59-31.2,7.3-47.19,8.87-1.3-.27-2.61-.59-3.6,.71-.75,.05-1.51,.1-2.26,.15-1.67-1.3-1.36-2.22,.26-3.48,2.81-2.19,5.89-4.16,7.83-7.3,5.42-5.06,11.92-8.15,18.82-10.61,10.6-3.78,20.75-8.55,30.43-14.3,.74,.17,1.24-.1,1.51-.81l.28-.23c6.41-1.96,11.51-6.41,17.45-9.26,12.02-5.75,22.83-13.14,31.8-23.1,1.69-1.88,3.69-3.79,3.13-6.48-1.19-5.73-2.77-11.38-4.41-17.97-3.77,6.46-8.05,10.71-12.94,14.54-7.84,6.13-16.17,11.52-24.45,16.99-2.24,1.07-4.46,2.16-6.71,3.19-12.53,5.75-25.8,9.09-39.17,12.12-6.28,1.42-12.44,3.51-18.94,3.66-.86,.02-3.47,1.61-2.79-1.61,.29-.29,.57-.57,.86-.86,.32-.32,.64-.63,.96-.94,2.16-1.79,4.35-3.56,6.49-5.38,12.03-10.24,26.24-16.97,40.22-23.76,17.71-8.61,31.17-22.38,45.77-34.84,1.36-1.16,2.89-2.38,3.07-4.39,.55-6.02-.31-11.96-1.16-17.88-.27-1.9-2.16-3.38-3.38-1.27-3.43,5.95-9.81,8.31-14.4,12.78l-.2,.15c-1.11-.05-2.32-.26-2.25,1.48-1.59,.23-2.98,.87-4.15,1.98-.39,.26-.78,.52-1.16,.78h.01Zm-145.11,107.78c.24-.28,.21-.53-.09-.74,.05-2.94-.65-6,2.05-8.35,13.66-11.93,25.04-26.13,38.26-38.51,6.74-6.3,13.96-12.3,18-20.97,2.93-3.59,.44-4.84-2.55-5.7-14.58-4.17-29.76-4.98-44.56-7.93-6.01-1.2-12.41-.8-18.17-2.24-6.55-1.64-12.9-2.5-19.53-2.28-.55-7.63-4.77-13.72-8.51-19.98-6.54-10.97-11.5-22.85-19.21-33.14-.4-.78-.47-1.8-1.56-2.05l.12,.04c-.52-2.86-2.23-5.16-3.66-7.57-6.71-11.34-8.32-11.34-15.45-.08-11.84,18.69-22.42,38.1-32.56,57.75-1.22,2.36-2.4,4.97-5.61,5.05-12.01,.31-23.65,3.36-35.52,4.76-13.99,1.66-27.91,3.85-41.62,7.25-3.76,.93-4.19,2.41-2.62,5.52,2.66,5.27,6.5,9.64,10.32,14.02,13.8,15.78,29.07,30.15,43.46,45.37,2.01,2.13,2.49,4.2,1.97,6.73-3.83,18.66-7.96,37.26-11.47,55.98-1.58,8.44-3.63,16.94-2.4,25.71,.35,2.47,.86,4.36,3.98,3.24,9.36-1.91,17.46-6.83,25.93-10.88,1.24-.43,2.55-.73,3.71-1.32,15.99-8.15,31.73-16.76,46.38-27.19,2.12-1.51,3.44-1.89,5.93-.41,13.4,7.98,26.85,15.9,40.97,22.55,11.84,5.57,23.44,11.77,36.06,15.53,5.96,1.87,6.95,1.13,5.57-4.87-2.41-10.44-5.08-20.83-7.64-31.24,.26-.78,.21-1.5-.38-2.13-.14-.33-.28-.66-.42-.99-.14-.55-.28-1.09-.43-1.64-.27-1.1-.54-2.21-.82-3.31,.05-.14,.18-.3,.14-.4-.1-.26-.27-.49-.41-.74-.25-1.27-.51-2.54-.76-3.82,.05-.14,.18-.31,.13-.41-.11-.26-.28-.48-.43-.72-.21-.63-.42-1.26-.62-1.9,.28-1.03,.31-2-.6-2.77-.13-.42-.27-.84-.4-1.26,.19-.3,.13-.54-.19-.71-.62-2.75-1.25-5.51-1.87-8.26,.21-.74,.13-1.38-.59-1.81-.14-.69-.29-1.39-.43-2.08,.28-1.1,.27-2.15-.54-3.06-.46-2.67-.91-5.35-1.37-8.02Zm-319.7-45.87c-2.63,6.13-4.03,12.6-5.23,19.12-3.7,5.19,.09,8.44,3.31,11.43,15.27,14.21,33.58,23.76,51.96,33.08,10.57,5.37,22.01,8.73,33.02,13.08,19.25,7.61,38.59,14.83,58.92,19.18,3.39,.73,3.66,.19,4.41-2.6,3.81-14.12,5.84-28.67,10.42-42.58,.69-2.08,.06-3.41-1.51-4.75-2.91-2.47-5.92-4.89-8.49-7.7-11.34-12.41-22.53-24.94-33.79-37.43-7.54-8.36-14.39-17.08-15.79-28.8,.32-2.67,.93-5.29,2.59-7.44,3.02-3.91,1.39-5.35-2.73-6.62-24.97-7.75-48.95-17.72-70.74-32.43-2.97-2.01-5.77-4.27-8.96-6.65-.31,1.09-.55,1.66-.63,2.26-1.81,12.29-3.7,24.53-6.48,36.68-1.97,8.64-5.06,17.25-4.45,26.38-2.48,5.06-4.09,10.45-5.83,15.79ZM689.17,85.8s.04,.14,.04,.14c.13,1.66,0,3.38,.43,4.96,4.11,15.04,5.12,30.38,4.83,45.88-.17,9.11-.03,9.11,9.02,7.1,.48-.11,1-.09,1.48-.18,9.78-1.84,19.72-2.38,29.57-3.59,12.77-1.57,24.66-6.56,36.87-10.29,2.82-.86,5.64-1.92,7.07-4.89,1.91-.75,3.37-2.88,5.85-1.87,.76,.65,.95,.28,.9-.51,4.22-2.87,7.23-7.34,12.45-9.98-.32,11.23-4.43,20.32-9.75,29-5.12,5.42-10.54,10.49-16.56,14.91-1.69,1.24-2.78,2.24,.6,3.42,12.9,4.5,25.48,9.59,34.69,20.55,5.54,6.6,11.21,13.16,15.77,20.41,1.64,2.61,3.71,5.57,4.05,9.29,.9,9.86,2.57,19.64,3.63,29.49,.61,5.68,3.17,10.89,2.57,17-.38,3.92,.64,7.64-2.92,10.65-.86,.73-1.37,2.5-1.23,3.7,.94,7.9-5.03,13.93-5.62,21.44-.26,3.3-1.78,6.79,1.73,8.99,2.85,1.79,7.88-.25,9.92-3.43,1.78-2.77,3.78-5.26,6.3-7.54,4.14-3.75,8.78-7.21,11.48-12.32,5.06-9.56,8.7-19.57,10.55-30.33,1.66-9.65,3.84-19.25,3.32-29.08-.71-13.55-2.64-26.99-4.55-40.42-.85-5.96-2.38-11.54-7.2-15.64-11.81-22.87-27.71-42.57-46.53-60.01-2.79-2.59-5.49-5.29-8.98-6.97-9.2-9.62-20.04-17.2-30.97-24.61-22.24-15.06-47.04-24.76-72.34-33.11-17.97-5.93-36.66-8.83-55.41-11.28-24.62-3.22-49.1-2.3-73.41,2.34-19.27,3.67-38.02,9.33-56.32,16.4-28.95,11.17-54.7,27.91-79.42,46.32-22.11,16.46-42.03,35.38-59.91,56.34-22.85,26.79-43.73,55.03-60.76,85.98-4.97,9.03-10.37,17.82-15.72,26.64-6.18,10.18-8.6,20.82-4.55,32.4,7.7,21.99,18.24,42.69,28.67,63.44-4.51-1.5-8.31-.25-11.77,2.83-1.22,1.09-2.79,1.76-4.17,2.67-3.79,2.49-5.6,5.7-4.47,10.46,.38,1.59,2.51,3.67-.2,5.29-7.23-14.99-13.95-30.26-24.81-43.43-.39,.12-.75,1.02-1.01,1.96-1.88,6.89-3.85,13.75-5.58,20.68-5.69,22.72-12.02,45.19-24.73,65.24-1.61,2.53-.75,4.21,1.12,6.06,5.19,5.14,11.61,8.19,18.18,11.01,2.07,2.06,4.84,2.83,7.43,3.87,17.15,6.86,34.72,12.56,52.05,18.91,7.09,2.59,13.81,4.8,20.86,.27,.78-.5,1.93-.43,2.91-.6,16.1-2.76,32.32-4.37,48.66-4.73,2.56-.06,4.11-1.02,4.95-3.31,4.99-13.69,12.83-25.9,20.14-38.36,6.32-10.76,12.5-21.86,22.01-30.11,12.57-10.9,17.88-9.13,27.56-1.22,3.41,2.79,5.95,6.26,8.4,9.83,12.82,18.64,23.97,38.25,34.08,58.46,.67,1.34,1.14,2.83,2.93,3.08,9.57,1.38,19.1,3.28,28.72,3.97,8.46,.61,16.81,1.66,25.16,3.02,6.49,1.06,12.89,3.74,19.62,1.55,7.88-2.56,15.73-5.19,23.58-7.85,3.26-1.1,5.04-2.88,5.06-6.9,.04-11.08-1.82-21.81-4.91-32.36-.62-2.14-.9-4.12-.2-6.21,2.56-1.09,5.12-2.19,7.69-3.28,3.05,.79,4.51-.55,4.38-3.53-.12-2.91-1.83-3.66-4.44-2.75-2.64-.22-5.32-.83-7.92-.6-25.35,2.29-50.68,4.75-76.17,2.12-8.86-.91-17.73-1.69-26.6-2.52,6.87-3.18,13.88-5.03,20.77-7.23,14.9-4.77,29.59-10.21,44.85-13.82,2.66,.78,4.78-.75,7.03-1.67,8.89-3.62,17.89-6.92,26.97-10.06,9-3.11,17.49-7.7,26.19-11.66,.88-.4,1.97-.84,1.69-2.09-.24-1.06-1.31-.84-2.09-.86-3.83-.11-7.77-.33-10.94,2.3-2.56,2.13-5.71,2.56-8.64,3.61-4.31,1.55-7.14,.22-8.56-4.35-1.15-3.72-3.39-7.24-4.43-10.78-2.21-7.47-5.14-14.48-8.73-21.33-1.22-2.32-2.47-4.91-2.63-7.45-.46-7.48-3.39-14-7.17-20.17-4.66-7.61-9.73-14.95-14.56-22.46-.54-.84-2.1-1.71-.86-2.93,1.03-1.01,2.19,.06,3.23,.44,7.21,2.62,12.67-.92,18-5,1.36,.68,2.71,1.36,4.07,2.03,4.54,5.67,11.45,6.25,17.67,8.51-2.32-2.55-2.45-6.92-6.69-7.45-2.3-2.18-4.6-4.36-6.9-6.54-.11-.32-.33-.51-.65-.59-13.82-13.38-28.43-25.91-41.98-39.6-11.78-11.89-24.65-22.77-33.56-37.16-2.81-4.54-6.97-8.37-8.08-13.91l.16-.18c15.31,7.63,30.62,15.25,45.93,22.88,.18,.24,.41,.35,.71,.31,1.03,.52,2.07,1.04,3.1,1.56,9.14,6.63,19.57,10.99,29.23,16.72,2.06,1.22,3.14,.29,3.04-2-.13-3.01-.92-5.89-2.09-8.64-5.7-13.47-13.96-25.57-20.76-38.45-1.24-2.35-1.54-5.6-4.8-6.54-5.06-10.91-10.12-21.82-15.4-33.21,5.33,2.75,8.39,6.97,11.87,10.74,.25,.27,.5,.53,.75,.8,.38,.46,.76,.91,1.14,1.37,.37,5.73,4.81,8.97,8.15,12.69,9.2,10.27,18.61,20.36,28.22,30.25,6.36,6.55,13.2,12.65,19.8,18.93,1.14-1.01,.97-1.97,.77-2.98-4.23-20.45-9.43-40.64-16.88-60.18-2.95-7.72-4.75-15.88-8.76-23.2-4.13-12.95-5.91-26.55-11.16-39.29,8.12,5.36,13.8,12.72,19.97,19.59,.19,.28,.38,.56,.57,.84,.52,.62,1.05,1.23,1.57,1.85-.1,1.3,.84,2.08,1.47,3.05,5.15,7.95,10.76,15.65,15.24,23.96,7.52,13.93,16.17,26.92,27.11,38.42,2.65,2.79,4.63,2.53,7.03,.1,5.93-6.01,9.57-13.23,12.15-21.23,3.71-11.55,6.18-23.41,9.37-35.08,2.03-7.43,4.64-14.74,5.3-22.5,.12-.56,.24-1.12,.37-1.67,.65,0,1.3-.02,1.96-.03,1.4,1.67,1.86,3.71,2.27,5.76,.17,.45,.33,.89,.5,1.34Zm-19.67,667.23c2.89-.99,5.66-2.36,8.78-2.57,1.94,.63,3.6-.44,5.29-1.01,10.39-3.45,20.59-7.36,30.68-11.65,16.36-6.95,32.54-14.33,48.29-22.51,19.97-10.37,38.51-23.12,56.24-37,7.2-5.64,13.71-11.98,19.45-19.1,1.21-1.5,2.76-3.15,1.59-5.36-1.08-2.05-3.06-2.2-5.16-2.25-6.35-.15-11.81,1.48-16.8,5.84-3.49,3.05-6.69,6.44-10.39,9.27-11.69,8.95-24.25,16.57-36.81,24.17-24.2,14.64-49.18,27.65-76.04,36.9-6.8,2.34-13.95,4-20.2,7.83-24.11,5.37-47.64,13.15-72.43,15.69-22.27,2.28-44.53,2.35-66.83,2.07-.22,0-.44-.31-.78-.55,1.34-1.49,3.2-1.66,4.89-2.05,32.41-7.51,64.45-16.29,95.94-27.08,25.36-8.69,50.64-17.48,74.39-30.09,9.83-5.22,19.9-10.05,28.46-17.35,1.28,.67,2.08,.19,2.54-1.07,.33-.16,.66-.32,.99-.47,5.7-1.77,9.93-5.99,14.81-9.08,9.54-6.06,18.65-12.72,24.15-23.1,2.26-4.26,1.8-5.93-3.01-5.7-11.3,.56-21.99-2.76-32.97-4.17-6.54-.83-11.33-3.64-13.51-9.93-1.3-3.74-3.79-6.02-7.1-7.9-4.32-2.46-8.77-4.84-12.61-7.94-6.1-4.91-8.97-5.85-16.02-2.05-14.61,7.86-29.56,14.92-45.37,19.96-13.61,4.34-26.3,11.15-40.21,14.65-13.82,3.48-27.57,7.21-41.41,10.61-3.36,.83-4.87,1.98-5.09,5.84-.72,12.33-12.33,24.55-24.31,26.42-1.8,.28-3.39-.32-4.79-1.02-6.84-3.39-14.38-5.73-19.84-11.33-6.37-6.54-13.93-7.81-22.68-7.62-12.43,.26-24.88,1.32-37.33,.34-1.28-.1-2.69-.39-3.79,.7-4.35-.24-8.71-.47-13.06-.71-.2-.72-.52-.88-1.02-.22-1.94-.23-3.88-.47-5.83-.7-2.03-.06-4.06-.12-6.09-.17-4.52,.39-9.46-1.54-13.47,1.72-8.35,6.78-18.12,10.89-27.7,15.42-12.34,5.83-19.78,4.33-28.89-6.04-.32-.35-.64-.71-.96-1.06-.19-.19-.32-.4-.42-.65,.09-.65-.2-1.02-.83-1.14-.26-.39-.52-.79-.78-1.18,.14-3.04-1.26-5.32-3.51-7.2-.16-.61-.32-1.21-.47-1.82,.32-3.71,1.26-7.64-3.43-9.55-.82-.22-1.63-.45-2.45-.67-.96-2.09-2.38-2.12-4.08-.91-.95-.15-1.89-.31-2.84-.46-5.09-4.31-11.52-3.95-17.54-5-.28,0-.55-.06-.8-.18-2.33-1.75-4.45-4.31-7.85-2.12-1.08-.28-2.15-.55-3.23-.83-.11-.61-.31-.81-.69-.15-1.06-.33-2.11-.67-3.17-1-.48-.96-1.25-1.08-2.17-.75-.96-.1-1.91-.21-2.87-.31-8.78-3.16-17.68-5.89-26.25-9.7-19.87-8.82-39.62-17.83-58.57-28.55-13.28-7.51-25.2-16.59-35.26-28.17-9.97-11.48-14-23.95-8.24-38.64,2.92-5.89,3.81-12.38,5.57-18.62,2.78-7.18,5.56-14.36,8.73-22.57-7.67,2.59-14.32,4.44-20.93,6.55-21.21,6.75-42.46,13.3-62.41,23.39-18.3,9.25-36.18,19.04-50.51,34.24-13.62,14.45-17.88,31.26-12.77,50.14,4.37,16.12,14.12,29.32,25.53,41.16,19.46,20.21,41.25,37.56,65.27,52.11,20.08,12.16,40.67,23.33,62.54,31.94,13.27,5.23,26.56,10.45,40.37,14.18,.72,2.09,2.82,2.21,4.41,2.75,9.29,3.13,18.6,6.22,27.97,9.08,37.01,11.28,75.07,16.94,113.46,20.66,16.52,1.6,33.08,3.08,49.66,3.81,4.95,.22,9.84,1.89,14.72,1.09,4.7-.78,9.23-.71,13.83,.21,1.31,1.22,2.63,1.2,3.96,.03,11.97-.28,23.95-.45,35.92-.88,10.28-.37,20.7-.08,30.78-1.78,15.76-2.67,31.67-3.33,47.47-5.26,17.15-2.09,34.2-4.67,51.03-8.8,15.34-3.77,30.77-7.14,45.64-12.59,.42-.14,.83-.28,1.25-.42Z"/><path class="cls-5" d="M428.68,818.4c1.47-1.18,3.2-.59,4.8-.59,19.57-.04,39.15,.07,58.72-.05,6.91-.04,13.77-1.88,20.73-.67-6.04,2.35-12.49,1.39-18.63,1.63-21.22,.83-42.49,1.31-63.73,.16-.64-.03-1.26-.31-1.89-.48Z"/><path class="cls-5" d="M349.66,811.47c4.07-1.47,7.85-.21,11.62,1.19-3.96,.4-7.78-.44-11.62-1.19Z"/><path class="cls-5" d="M671.53,789.63c3.53-1.91,7.07-3.81,11.28-3.57-3.49,2.04-7.37,2.86-11.28,3.57Z"/><path class="cls-5" d="M534.49,815.05c2.84-1.47,5.66-3.11,8.86-.89-2.89,.9-5.86,1.04-8.86,.89Z"/><path class="cls-5" d="M693.41,782.69c3.34-1.94,6.88-3.26,10.79-3.41-3.35,1.93-7.04,2.77-10.79,3.41Z"/><path class="cls-5" d="M253.66,791.34c3.51-.08,6.77,.68,9.61,2.85-3.32-.55-6.6-1.23-9.61-2.85Z"/><path class="cls-5" d="M302.65,803.47c2.55-1.46,4.69-.57,6.66,1.19-2.38,.48-4.54-.22-6.66-1.19Z"/><path class="cls-5" d="M323.63,807.44c2.22-1.11,4.22-1.19,5.7,1.21-1.99,.01-3.93-.21-5.7-1.21Z"/><path class="cls-5" d="M398.46,816c2.28-2.34,4.02-.34,5.88,.72-2.04,.41-3.97-.07-5.88-.72Z"/><path class="cls-5" d="M608.55,804.68c2.12-.93,4.13-2.48,6.66-1.25-2.15,.8-4.25,1.82-6.66,1.25Z"/><path class="cls-5" d="M621.19,.99c-1.95,.95-3.85,1.13-5.61-.42,1.93-.61,3.8-.45,5.61,.42Z"/><path class="cls-5" d="M377.68,814.3c2.03-.73,4.05-1.45,5.71,.72-1.99,.41-3.87,.04-5.71-.72Z"/><path class="cls-5" d="M387.66,815.36c1.97-.83,3.9-1.13,5.68,.45-1.94,.44-3.83,.27-5.68-.45Z"/><path class="cls-5" d="M589.57,808.6c1.72-1.18,3.43-2.42,5.64-1.14-1.83,.62-3.6,1.54-5.64,1.14Z"/><path class="cls-5" d="M747.41,761.09c.64-3.3,3.41-1.62,5.2-2.23-1.42,1.47-3.34,1.78-5.2,2.23Z"/><path class="cls-5" d="M686.38,784.86c1.53-.83,2.59-3.14,4.87-1.52-1.42,1.16-3.1,1.5-4.87,1.52Z"/><path class="cls-5" d="M580.45,809.82c1.48-1.95,3.4-1.19,5.25-.87-1.62,1.07-3.45,.9-5.25,.87Z"/><path class="cls-5" d="M340.68,810.33c1.73-.74,3.42-1.27,4.72,.74-1.7,.58-3.23,0-4.72-.74Z"/><path class="cls-5" d="M570.47,811c1.31-2.11,3.03-1.35,4.74-.69-1.48,.95-3.08,1.02-4.74,.69Z"/><path class="cls-5" d="M562.55,811.76c1.45-1.45,3.03-1.34,4.66-.36-1.52,.54-3.07,.76-4.66,.36Z"/><path class="cls-5" d="M628.53,800.6c1.44-.95,2.83-2.09,4.72-1.14-1.41,1.05-2.95,1.59-4.72,1.14Z"/><path class="cls-5" d="M295.68,802.26c1.47-.82,2.82-1.04,3.75,.77-1.34,.16-2.62,.06-3.75-.77Z"/><path class="cls-5" d="M593.37,.53c-1.1,1.55-2.4,1.4-3.79,.45,1.18-.87,2.47-.81,3.79-.45Z"/><path class="cls-5" d="M548.47,813.83c1.22-1.68,2.78-1.23,4.36-.72-1.36,.81-2.8,1.14-4.36,.72Z"/><path class="cls-5" d="M413.65,817.3c1.39-.79,2.7-.98,3.74,.56-1.36,.56-2.62,.49-3.74-.56Z"/><path class="cls-5" d="M729.94,390.73c-.35,0-.68,0-1.01,0,.08-.04,.16-.12,.24-.12,.33-.03,.66-.04,.99-.06-.08,.06-.16,.13-.22,.18Z"/><path class="cls-5" d="M698.3,15.66c-1.49,.31-2.53-.66-3.7-1.27,1.64-.77,2.84-.24,3.7,1.27Z"/><path class="cls-5" d="M317.63,806.34c1.2-1.06,2.15-.92,2.82,.58-1.02,.17-1.97,.04-2.82-.58Z"/><path class="cls-5" d="M676.4,9.6c-1.18,.22-2.47,.78-3.02-.97,1.52-1.28,2.08,.44,3.02,.97Z"/><path class="cls-5" d="M648.26,3.86c-1.18,1.14-2.14,1.01-2.84-.51,1.04-.31,1.97-.08,2.84,.51Z"/><path class="cls-5" d="M583.34,1.66c-.8,1.24-1.94,1.12-3.13,.78,.76-1.39,1.97-.98,3.13-.78Z"/><path class="cls-5" d="M598.5,807.11c.69-1.91,2.05-1.41,3.39-.95-.99,.81-2.17,.96-3.39,.95Z"/><path class="cls-5" d="M765.71,752.86c.11-2.26,1.63-2,3.14-1.78-.72,1.17-1.86,1.59-3.14,1.78Z"/><path class="cls-5" d="M526.45,815.68c.85-1.13,1.77-1.3,2.78-.2-.9,.5-1.82,.57-2.78,.2Z"/><path class="cls-5" d="M520.56,816.61c.76-1.06,1.62-1.35,2.67-.38-.79,.84-1.71,.75-2.67,.38Z"/><path class="cls-5" d="M557.6,812.62c.89-1.13,1.98-1.12,3.18-.58-.93,.93-2.02,.94-3.18,.58Z"/><path class="cls-5" d="M623.52,801.77c.73-1.17,1.83-1.21,3.01-.97-.75,1.1-1.74,1.48-3.01,.97Z"/><path class="cls-5" d="M738.43,765.19c.41-.94,.46-2.7,2.08-.92-.55,.62-1.19,1.05-2.08,.92Z"/><path class="cls-5" d="M655.52,5.48c-1.02,.47-1.85,.45-2.17-.86,1.15-.8,1.59,.21,2.17,.86Z"/><path class="cls-5" d="M618.43,802.81c.59-1.23,1.49-1.17,2.51-.6-.73,.66-1.56,.9-2.51,.6Z"/><path class="cls-5" d="M665.28,6.77c-.85,1.1-1.44,.78-1.88-.35,.72-.36,1.33-.16,1.88,.35Z"/><path class="cls-5" d="M772.41,749.19c.31-1.29,1.15-1.59,2.33-1.24-.56,.81-1.34,1.22-2.33,1.24Z"/><path class="cls-5" d="M757.41,756.95c.38-1.17,1.2-1.36,2.25-1-.56,.76-1.3,1.11-2.25,1Z"/><path class="cls-5" d="M732.44,767.95c.38-1.1,1.15-1.35,2.19-1.01-.53,.77-1.23,1.18-2.19,1.01Z"/><path class="cls-5" d="M723.43,771.95c.4-1.14,1.22-1.33,2.26-1-.54,.81-1.29,1.17-2.26,1Z"/><path class="cls-5" d="M711.38,776.77c.52-1.01,1.34-1.17,2.34-.81-.57,.87-1.42,.96-2.34,.81Z"/><path class="cls-5" d="M651.43,794.93c.49-1.16,1.32-1.35,2.4-.88-.65,.71-1.39,1.15-2.4,.88Z"/><path class="cls-5" d="M240.01,787.18c1.04-.51,1.92-.54,2.41,.74-.96,.25-1.72-.13-2.41-.74Z"/><path class="cls-5" d="M249.12,789.99c1.02-.42,1.84-.27,2.36,.8-.97,.27-1.74-.02-2.36-.8Z"/><path class="cls-5" d="M666.43,790.94c.53-1.19,1.39-1.33,2.46-.78-.67,.75-1.47,1.08-2.46,.78Z"/><path class="cls-5" d="M662.42,791.91c.35-1.05,.87-1.54,1.82-.53-.5,.54-1.08,.81-1.82,.53Z"/><path class="cls-5" d="M636.45,798.81c.54-1.19,1.4-1.21,2.42-.68-.81,.23-1.61,.45-2.42,.68Z"/><path class="cls-5" d="M697.43,270.75c1.1,1.03,.78,1.64-.58,1.94-.39-.82,.09-1.38,.58-1.94Z"/><path class="cls-5" d="M691.55,13.46c-.63,.24-.99,0-1.11-.64,.37,.22,.74,.43,1.11,.64Z"/><path class="cls-2" d="M562.3,133.03c-3.48-3.76-6.53-7.98-11.87-10.74,5.28,11.39,10.34,22.3,15.4,33.21,.41,2.69,1.96,4.86,3.07,7.25,1.19,2.56,4.03,5.2,2.16,8.2-2.3,3.67-1.55,7.43-1.16,11.09,1.11,10.41,1.26,10.39-8.69,12.37-1.03-.52-2.07-1.04-3.1-1.56-.03-.57-.21-.8-.71-.31-15.31-7.63-30.62-15.25-45.93-22.88-.18-.21-.36-.42-.54-.64-.1,.12-.19,.24-.29,.37,.22,.15,.44,.3,.67,.46,1.11,5.54,5.27,9.37,8.08,13.91,8.91,14.4,21.78,25.27,33.56,37.16,13.55,13.69,28.16,26.22,41.98,39.6-.13,.59,.07,.8,.65,.59,2.3,2.18,4.6,4.36,6.9,6.54,.36,2.45-.25,3.3-2.91,2.31-2.74-1.02-5.04-3.08-8.06-3.37-1.36-.68-2.71-1.36-4.07-2.03-2.33-3.02-6.32-2.55-9.19-4.37-17.31-10.98-36.3-18.89-53.82-29.48-.08-.13-.14-.28-.25-.38-.06-.05-.2,0-.31,0,.2,.11,.41,.22,.61,.32-.51,1.49,.45,2.57,1.12,3.66,4.92,8.08,9.81,16.17,14.85,24.18,10.01,15.93,22,30.71,26.59,49.65,2.78,11.47,7.6,22.43,6.67,34.67-.31,4.18-.57,9.64,1.7,12.46,3.37,4.19,3.27,9.22,5.71,13.49,1.76,3.08,.93,6.46-3.49,7.8-1.6,.48-3.71,.55-4.69,2.45-15.26,3.61-29.95,9.05-44.85,13.82-6.89,2.2-13.89,4.05-20.77,7.23,8.87,.84,17.74,1.61,26.6,2.52,25.49,2.62,50.82,.17,76.17-2.12,2.6-.24,5.28,.38,7.92,.59,1.2,2.08,.96,4.18,.06,6.28-2.56,1.09-5.12,2.19-7.69,3.28-4.33-.04-7.89,2.2-11.62,3.92-12.88,5.95-24.59,14.37-38.22,18.66-13.39,4.21-25.86,10.98-39.75,13.79-4.17,.84-8.63,2.37-7.44,8.4-1.79-.26-2.26-1.74-2.93-3.08-10.11-20.22-21.26-39.83-34.08-58.46-2.45-3.57-4.99-7.04-8.4-9.83-9.68-7.92-14.99-9.68-27.56,1.22-9.51,8.25-15.69,19.34-22.01,30.11-7.31,12.46-15.15,24.67-20.14,38.36-.83,2.29-2.39,3.26-4.95,3.31-16.33,.36-32.55,1.98-48.66,4.73-.98,.17-2.13,.1-2.91,.6-7.05,4.54-13.78,2.33-20.86-.27-17.33-6.34-34.9-12.04-52.05-18.91-2.59-1.04-5.36-1.81-7.43-3.87-1.63-3.31,0-5.49,2.34-7.72,2.49-2.37,5.48-4.41,6.48-8.05,2.93-10.71,8.15-20.47,12.61-30.55,1.04-2.36,2.53-2.67,4.67-2.65,8.99,.07,17.99-.1,26.97,.17,5.31,.15,10.58,1.35,15.92,.82,.98-.1,3.03,.93,2.68-1.61-1.55-6.32-3.1-12.64-4.65-18.95,1.57,.4,3.31,.18,4.6,1.57,1.13,1.22,2.49,2.54,4.31,1.38,1.75-1.12,1.2-2.96,.83-4.56-.63-2.75-1.25-5.52-2.16-8.18-2.51-7.41-5.12-14.81-6.47-22.52-1.52-8.64-5.1-17.02-4.25-25.97,1.31-13.83,5.32-27.16,10.31-39.95,10.41-26.64,22.22-52.6,38.4-76.5,12.45-18.4,26.25-35.62,41.37-51.73,13.96-14.87,30.56-26.93,46.23-39.92,13.9-11.52,29.65-20.43,45.91-28.32,20.05-9.73,40.29-18.73,62.4-23.08,16.82-3.31,33.58-6.51,50.77-7.02,29.8-.88,59.03,2.5,87.74,10.68,29.44,8.38,57.44,19.8,82.49,37.71,2.58,1.84,5.01,3.04,8.06,1.37,3.49,1.68,6.19,4.38,8.98,6.97,18.81,17.44,34.72,37.14,46.53,60.01,0,1.65-.1,3.32,.02,4.96,1.37,17.91,1.93,35.8-1.05,53.62-.54,3.23,.62,6.7-1.51,10.91-3.53-8.96-6.63-16.97-9.87-24.93-.65-1.59-.28-3.04,.22-4.34,3.43-8.9,.2-15.78-6.27-21.81-.83-.78-1.4-1.85-2.05-2.81-9.87-14.48-22-26.44-37.34-35.25-3.17-1.82-6.33,1.65-8.69-1.45,5.31-8.68,9.43-17.76,9.75-29-5.22,2.64-8.23,7.12-12.45,9.98-.3,.17-.6,.34-.9,.51-2.47-1.01-3.94,1.12-5.85,1.87-6.36-.39-12.45-2.08-18.33-4.34-14.76-5.67-29.7-10.65-45.57-12.03-4.74-.41-8.35-2.48-11.78-5.63-5.43-4.98-9.79-10.74-13.59-16.98,0,0-.04-.14-.04-.14-.16-.45-.33-.89-.5-1.34-.41-2.06-.87-4.1-2.27-5.76-.04-1.23-.36-2.43-1.89-1.92-.76,.25-.94,1.26-.07,1.95-.12,.56-.24,1.12-.36,1.67-4.92,9.66-12.3,17.59-18.43,26.39-6.48,9.31-20.3,12.72-29.34,5.12-2.29-1.92-4.62-3.79-7.01-5.59-7.03-5.29-14.75-9.34-22.89-12.63-.52-.62-1.05-1.23-1.57-1.85,.23-.57-.03-.8-.57-.84-6.17-6.87-11.85-14.22-19.97-19.59,5.25,12.74,7.03,26.33,11.16,39.29-1.92,1.38-1.11,3.21-.83,4.97,.91,5.7,2.09,11.36,1.83,17.21-.33,7.3-.13,14.57,1.85,21.69,.25,.88,.55,1.95-.73,2.82-6.06-4.37-12.05-8.99-18.35-13.13-4.89-3.21-9.05-7.7-15.06-9.07-.38-.46-.76-.91-1.14-1.37,.15-.64-.12-.89-.75-.8Zm-99.32,95.38l-.2-.21c-.16-.76-.53-1.34-1.36-1.49h-.01c-5.14-6.96-8.77-7.09-13.94-.42-1.12,1.44-2.02,3.05-2.96,4.61-4.63,7.72-8.74,15.7-12.18,24.02-1.37,3.32-3.43,4.77-7.21,4.77-5.92,0-11.88,.35-17.67,1.94-1.6,.21-3.2,.42-4.79,.63-4.54,.2-8.9,.93-12.37,4.25-.27,.07-.5,.21-.7,.4-1.98,.34-2.05,1.85-2.09,3.39-.11,3.5,.09,6.95,1.33,10.27,4.4,11.76,12.43,20.68,22.68,27.45,4.72,3.12,5.95,6.51,4.59,11.61-.8,2.99-1.55,6.05-1.1,9.22-.12,.61-.24,1.22-.36,1.83-1.25,.73-.99,1.93-.95,3.06-.31,3.81-.84,7.61-.89,11.42-.11,6.96,3.65,10.15,10.53,8.87,8.8-1.65,16.61-5.73,23.46-11.32,4.19-3.42,7.62-4.37,12.32-1.07,6.55,4.59,13.88,7.86,21.21,11.02,7.14,3.08,15.49-2.53,15.95-10.37,.46-7.96-1.09-15.76-3.59-23.01-2.36-6.84-.47-10.64,4.61-14.72,7.27-5.84,13.94-12.43,18.51-20.72,5.12-9.3,2.45-18.14-6.52-21.31-4.67-1.65-9.59-3.42-14.57-2.96-11,1.03-18.96-2.09-21.66-13.8,.2-.59-.05-.93-.62-1.09-.47-.96-.95-1.93-1.42-2.89-.19-.36-.39-.73-.58-1.09v-.03c-.16-1.57-.65-2.97-2.04-3.9l-.05-.06c-.85-2.83-2.16-5.38-4.54-7.26l-.11-.16c-.24-.29-.48-.59-.73-.88Zm16.04-87.6c-3.53-.12-7.06-.25-10.59-.37-5.07-2.57-5.22-8.12-7.57-12.35-1.53-2.74-1.84-6.59-5.9-7.35-3.75,1.64-3.51,5.39-4.15,8.44-2.55,12.09-2.43,11.89-14.56,10.87-4.37-.37-9.25-1.75-13.12,2.03-2.71,1.24-1.02,2.67,.09,3.58,1.91,1.57,4.11,2.79,6.16,4.19,8.62,5.88,11.81,7.47,7.9,18.86-.93,2.71-2.35,5.38-2.52,8.5-.18,3.4,1.53,4.21,3.76,2.93,9.76-5.61,19.23-2.93,28.83,.27,1.39,.46,3.4,3.09,4.75-.31,.77-1.94,2.78-3.46,2.09-5.9-.36-1.28-.79-2.54-1.22-3.79-2.73-7.93-2.65-14.98,5.85-19.59,1.28-.7,2.4-1.79,3.43-2.85,1.22-1.26,3.13-2.22,2.74-4.43-.27-1.55-2.45-2.47-5.97-2.72Z"/><path class="cls-2" d="M668.25,753.45c-14.87,5.45-30.3,8.82-45.64,12.59-16.82,4.14-33.87,6.71-51.03,8.8-15.8,1.93-31.71,2.59-47.47,5.26-10.07,1.7-20.5,1.42-30.78,1.78-11.97,.43-23.95,.6-35.92,.88-1.31-1.29-2.63-1.27-3.96-.03-4.6-.91-9.14-.99-13.83-.21-4.88,.81-9.76-.87-14.72-1.09-16.58-.73-33.14-2.2-49.66-3.81-38.39-3.72-76.45-9.38-113.46-20.66-9.38-2.86-18.69-5.95-27.97-9.08-1.59-.54-3.69-.65-4.41-2.75,2.09-2.76-.57-3.92-2-5.11-12.03-10.05-24.84-18.98-38.66-26.38-24.17-12.93-48.66-25.25-68.62-44.72-12.76-12.45-25.53-24.86-35.37-39.84-16.25-24.75-13.24-50.07,8.25-70.29,8.02-7.54,16.6-14.5,26.27-19.81,15.41-8.46,31.24-16.12,47.44-22.99,2.17-.92,4-3.34,6.86-2.01-1.76,6.23-2.66,12.73-5.58,18.62-.04-.49-.16-.99-.11-1.47,.19-2.05,2.11-4.43,.04-6.07-2.15-1.7-4.77-.39-7.11,.44-7,2.49-11.47,7.27-14.3,14.22-5.77,14.15-7.58,27.5,2.67,40.85,11.67,15.2,26.54,26.45,42.12,37.03,3.29,2.23,7.03,2.8,10.95,1.26,7.4-2.92,14.66-1.36,21.76,1.1,18.31,6.36,36.55,12.94,54.87,19.27,6.78,2.34,13.76,3.94,21.46,4.03-1.27-2.49-3.91-3.13-4.02-5.59,.96,.1,1.91,.21,2.87,.31,.57,.71,1.31,.9,2.17,.75,1.06,.33,2.11,.67,3.17,1,0,0,.32,.21,.32,.21l.37-.06c1.08,.28,2.15,.55,3.23,.83,2.43,1.4,5.05,2.07,7.85,2.12,.25,.12,.52,.18,.8,.18,5.44,3.08,11.34,4.57,17.54,5,.95,.15,1.89,.31,2.84,.46,1.12,1.36,2.6,1.14,4.08,.91,.82,.22,1.63,.45,2.45,.67,1.14,3.18,2.29,6.37,3.43,9.55,.16,.61,.32,1.21,.47,1.82,.05,2.95,1.37,5.27,3.51,7.2,.26,.39,.52,.79,.78,1.18,.28,.38,.56,.76,.83,1.14,.09,.25,.23,.46,.42,.65l.96,1.06c9.11,10.38,16.56,11.88,28.89,6.04,9.58-4.53,19.36-8.64,27.7-15.42,4.01-3.26,8.95-1.33,13.47-1.72,2,1.18,4.03,1.08,6.09,.17,1.94,.23,3.88,.47,5.83,.7,.34,.07,.68,.15,1.02,.22,4.35,.24,8.71,.47,13.06,.71,6.13,2.26,12.57,3.44,18.56,6.34,15.68,7.59,32.89,10.62,49.43,15.63,5.24,1.59,10.53,3.42,16.36,3.2,12.9-.49,25.56-1.94,37.88-6.04,8.26-2.75,16.49-6.43,24.99-7.37,13.32-1.47,26.66-2.5,39.68-5.79,6.24-1.57,12.59-1.08,18.83-1.44,14.26-.82,28.6-1.34,42.87,.37,10.55,1.27,20.73,5.03,31.79,1.05,6.49-2.33,9.98,.51,10.71,5.36-.33,.16-.66,.32-.99,.47-1.37-.88-2.08-.19-2.54,1.08-8.57,7.29-18.64,12.13-28.46,17.35-23.75,12.6-49.03,21.4-74.39,30.09-31.5,10.79-63.53,19.57-95.94,27.08-1.69,.39-3.54,.56-4.89,2.05,.33,.25,.55,.55,.78,.55,22.31,.28,44.56,.2,66.83-2.07,24.78-2.53,48.32-10.31,72.43-15.69,1.51,.19,3.02,.36,2.88,2.48-.15,2.28,1.23,3.93,2.93,4.79,5.74,2.9,3.12,4.47-.72,6.12-.52,.22-.81,.97-1.21,1.48-3.11,.21-5.89,1.58-8.78,2.56-.58-.34-.96-.1-1.25,.42Zm-419.45-24.13c.59-.06,2.09-.06,2.62-1.57,1.18-3.36,3.36-6.09,5.42-8.88,1.87-2.52,.82-3.87-1.51-5.03-4.02-2-7.97-4.13-12.02-6.06-13.64-6.52-27.34-12.9-40.37-20.6-9.59-5.66-19.21-11.28-28.91-16.76-1.81-1.02-4.31-2.98-5.84,.45-1.25,2.8-3.4,4.89-5.05,7.37-1.72,2.57-2.32,5.3-.51,7.93,3.48,5.05,6.92,10.63,12.29,13.47,7.8,4.12,14.87,9.35,22.67,13.45,12.64,6.65,26.31,9.85,39.93,13.33,3.54,.9,6.79,2.8,11.29,2.9Z"/><path class="cls-4" d="M798.96,95.68c-3.05,1.67-5.48,.48-8.06-1.37-25.05-17.91-53.05-29.33-82.49-37.71-28.71-8.17-57.94-11.56-87.74-10.68-17.19,.51-33.95,3.71-50.77,7.02-22.11,4.35-42.35,13.35-62.4,23.08-16.27,7.9-32.02,16.8-45.91,28.32-15.67,12.99-32.27,25.05-46.23,39.92-15.12,16.11-28.92,33.33-41.37,51.73-16.18,23.9-27.99,49.86-38.4,76.5-5,12.79-9,26.12-10.31,39.95-.85,8.95,2.73,17.33,4.25,25.97,1.35,7.71,3.96,15.11,6.47,22.52,.9,2.67,1.53,5.43,2.16,8.18,.36,1.59,.92,3.44-.83,4.56-1.82,1.16-3.18-.15-4.31-1.38-1.29-1.4-3.03-1.17-4.6-1.57-3.05-4.84-5.24-10.25-9.59-14.21-10.42-20.76-20.97-41.46-28.66-63.44-4.05-11.58-1.63-22.22,4.55-32.4,5.35-8.81,10.75-17.61,15.72-26.64,17.03-30.95,37.91-59.19,60.76-85.98,17.87-20.96,37.8-39.88,59.91-56.34,24.72-18.4,50.47-35.14,79.42-46.32,18.3-7.06,37.05-12.72,56.32-16.4,24.31-4.64,48.79-5.56,73.41-2.34,18.75,2.45,37.44,5.35,55.41,11.28,25.3,8.35,50.1,18.05,72.34,33.11,10.93,7.4,21.78,14.99,30.97,24.61Z"/><path class="cls-3" d="M533.4,648.63c-12.63-3.77-24.22-9.96-36.06-15.53-14.12-6.65-27.57-14.57-40.97-22.55-2.48-1.48-3.81-1.1-5.93,.41-14.65,10.44-30.39,19.04-46.38,27.19-1.16,.59-2.47,.89-3.71,1.32-1.82-1.61-3.8-1.19-5.31,.17-2.56,2.31-5.77,2.88-8.8,4.04-3.43,1.32-4.98,.84-3.81-3.17,.48-1.81,1.27-3.44,2.59-4.8,.17-.33,.33-.67,.5-1,.13-.33,.25-.67,.38-1,.21-.32,.43-.63,.64-.95,.55-.78,1.11-1.55,1.66-2.33,1.27-.39,1.39-1.44,1.43-2.52,.65-1.07,1.31-2.15,1.96-3.22,1.64-.36,1.93-1.56,1.87-2.98,.37-.68,.75-1.36,1.12-2.04,1.25-.27,1.85-.96,1.54-2.28l.04-.04c1.46-.48,1.36-1.62,1.2-2.79,1.58-2.12,3.11-4.28,4.76-6.35,6.98-8.78,13.99-17.53,20.99-26.29,1.77-.89,3.15-2.11,3.42-4.22,3.97-5,7.94-10,11.91-15,5.95-4.7,10.16-10.89,14.06-17.2,2.99-4.83,7.15-7.75,12.21-9.69,3.88-1.48,7.89-2.63,11.73-4.18,7.23-2.91,15.19-3.66,22.1-7.52,17.23-3.98,33.8-10.18,50.71-15.23,8.99-2.69,17.45-7.36,27.17-7.36-5.06,5.59-9.79,11.54-15.25,16.71-13.08,12.41-24.21,26.75-38.05,38.42-3.73,3.14-4.82,7.31-2.72,11.99-.4,4.71-1.1,9.5,3.26,13.02,.73,.43,.81,1.07,.6,1.82-2.01,.62-2.18,2.17-1.21,3.51,1.06,1.46,1.2,2.98,1.48,4.62,1.05,6.16,2.25,12.3,4.83,18.06,.28,6.28,2.73,12.13,3.55,18.3,.75,5.69,3.24,11.03,3.41,16.84,.06,2.1,.14,4.16-2.93,3.84Z"/><path class="cls-5" d="M741.58,674.69c-.73-4.85-4.22-7.7-10.71-5.36-11.06,3.98-21.24,.21-31.79-1.05-14.27-1.71-28.61-1.19-42.87-.37-6.24,.36-12.6-.13-18.83,1.44-13.02,3.29-26.36,4.32-39.68,5.79-8.5,.94-16.74,4.62-24.99,7.37-12.32,4.1-24.98,5.55-37.88,6.04-5.83,.22-11.12-1.61-16.36-3.2-16.54-5.01-33.75-8.04-49.43-15.63-5.99-2.9-12.43-4.08-18.56-6.34,1.1-1.09,2.51-.8,3.79-.7,12.45,.99,24.9-.07,37.33-.34,8.75-.19,16.31,1.09,22.68,7.62,5.46,5.6,13.01,7.94,19.84,11.33,1.4,.7,2.99,1.3,4.79,1.02,11.98-1.87,23.59-14.1,24.31-26.42,.22-3.86,1.73-5.02,5.09-5.84,13.84-3.4,27.59-7.13,41.41-10.61,13.91-3.5,26.6-10.31,40.21-14.65,15.8-5.04,30.76-12.1,45.37-19.96,7.06-3.8,9.92-2.87,16.02,2.05,3.84,3.1,8.3,5.48,12.61,7.94,3.3,1.88,5.79,4.16,7.1,7.9,2.19,6.29,6.98,9.1,13.51,9.93,10.98,1.4,21.67,4.72,32.97,4.17,4.81-.24,5.27,1.44,3.01,5.7-5.5,10.38-14.6,17.04-24.15,23.1-4.88,3.1-9.11,7.32-14.81,9.08Z"/><path class="cls-4" d="M173.58,514c-2.86-1.34-4.7,1.09-6.86,2.01-16.2,6.87-32.03,14.53-47.44,22.99-9.67,5.31-18.25,12.27-26.27,19.81-21.49,20.22-24.51,45.54-8.25,70.29,9.83,14.97,22.61,27.39,35.37,39.84,19.95,19.47,44.45,31.79,68.62,44.72,13.83,7.4,26.64,16.33,38.66,26.38,1.43,1.19,4.09,2.35,2,5.11-13.81-3.73-27.1-8.95-40.37-14.18-21.87-8.61-42.46-19.78-62.54-31.94-24.02-14.55-45.81-31.91-65.27-52.11-11.41-11.85-21.16-25.05-25.53-41.16-5.12-18.88-.85-35.69,12.77-50.14,14.33-15.2,32.21-24.99,50.51-34.24,19.95-10.09,41.2-16.64,62.41-23.39,6.61-2.11,13.26-3.96,20.93-6.55-3.17,8.2-5.95,15.39-8.73,22.57Z"/><path class="cls-1" d="M298.87,494.64c1.41,11.72,8.25,20.44,15.79,28.8,11.26,12.48,22.45,25.02,33.79,37.43,2.57,2.81,5.57,5.23,8.49,7.7,1.58,1.34,2.2,2.67,1.51,4.75-4.58,13.92-6.61,28.47-10.42,42.58-.75,2.79-1.01,3.32-4.41,2.6-20.34-4.35-39.67-11.57-58.92-19.18-11.01-4.35-22.45-7.71-33.02-13.08-18.38-9.33-36.69-18.87-51.96-33.08-3.22-3-7-6.25-3.31-11.44,2,.09,4.17,.03,5.79,1.21,9.97,7.31,20.64,13.46,31.58,19.16,8.58,4.47,17.9,5.72,27.39,6.2,2.53,.13,3.6-.67,1.87-3.16-.55-.8-.94-1.72-1.39-2.58,3.32-.95,6.56,.22,9.81,.51,3.24,.29,5-.24,4.81-4-.16-3.29,.86-6.24,4.49-7.56-6-4.77-13.61-6.02-18.7-11.41-.24-.49-.47-.99-.71-1.48-.1,.26-.19,.52-.29,.77,3.35-6.29,3.81-12.95,2.61-19.84,1.55,.09,3.47,.04,3.54-1.81,.13-3.41,1.44-6.81,.39-10.22-.51-1.67-.76-3.73-3.27-3.7-7.42-7.38-17.61-10.8-25.31-17.93-5.19-4.81-5.63-4.33-9.24,1.16-3.17,.04-5.4-1.13-6.27-4.44-.8-3.04-2.48-4.64-5.85-3.08-2.91,1.35-3.79-.26-2.94-2.66,1.06-3.01,1.63-6,1.95-9.16,.27-2.64,1.65-3.86,4.27-1.4,2.03,1.91,4.4,3.43,7.2,4.29,7.73,2.35,15.1,5.66,22.89,8,12.99,3.89,25.48,9.43,38.21,14.2,3.08,1.15,6.2,2.43,9.63,1.86Z"/><path class="cls-4" d="M385.03,635.73c-1.32,1.35-2.11,2.99-2.59,4.8-3.55,2.56-4.41,7.31-8.01,9.83-3.12,1.11-3.64-.77-3.98-3.24-1.23-8.77,.82-17.27,2.4-25.71,3.51-18.72,7.63-37.32,11.47-55.98,.52-2.54,.04-4.61-1.97-6.73-14.38-15.22-29.66-29.59-43.46-45.37-3.83-4.38-7.67-8.76-10.32-14.02-1.57-3.11-1.13-4.59,2.62-5.52,13.71-3.4,27.63-5.59,41.62-7.25,11.87-1.41,23.5-4.46,35.52-4.76,3.21-.08,4.39-2.69,5.61-5.05,10.14-19.65,20.72-39.06,32.56-57.75,7.13-11.26,8.74-11.26,15.45,.08,1.43,2.41,3.14,4.71,3.66,7.57-2.43,.91-7.19-3.38-7.07,3.22,.22,12.8-1.54,25.52-1.71,38.28-.26,19.45-2.89,38.69-4.09,58.05-.29,4.69-2.24,4.91-6.19,3.92-8.01-2.01-15.96-4.28-24-6.09-13.71-3.07-27.58-5.57-41.48-7.69-5.32-.81-10.27-3.85-15.9-2.71-1.25-.34-2.49-.68-3.74-1.02-.13-.6-.42-.77-.93-.34-1.55-.49-3.57-1.54-4.56-.06-1.01,1.51,.73,3.06,1.89,4.09,3.2,2.85,4.99,6.99,8.66,9.38,.4,3.13,3.05,4.66,4.96,6.6,6.41,6.48,12.97,12.73,17.88,20.58,2.07,3.3,4.11,7.26,8.99,7.85,13.34,1.6,26.81,.71,40.16,2.02-3.97,5-7.94,10-11.91,15-2.4,.38-4.19,1.27-3.42,4.22-7,8.76-14.01,17.51-20.99,26.29-1.65,2.07-3.18,4.23-4.76,6.35-.93,.7-1.23,1.68-1.2,2.79,0,0-.04,.04-.04,.04-1.18,.31-1.7,1.07-1.54,2.28-.37,.68-.75,1.36-1.12,2.04-1.22,.62-1.67,1.72-1.87,2.98-.65,1.07-1.31,2.15-1.96,3.22-1.24,.41-1.44,1.41-1.43,2.52-.55,.78-1.11,1.55-1.66,2.33-.56,.09-.83,.36-.64,.95-.13,.33-.25,.67-.38,1-.51,.16-.75,.46-.5,1Z"/><path class="cls-1" d="M438.46,562.69c-13.35-1.32-26.81-.43-40.16-2.02-4.88-.58-6.92-4.54-8.99-7.85-4.91-7.85-11.47-14.1-17.88-20.58-1.92-1.94-4.56-3.47-4.96-6.6,.14-4.08-3.92-7.71-1.31-12.06,5.63-1.15,10.58,1.9,15.9,2.71,13.9,2.12,27.76,4.61,41.48,7.69,8.03,1.8,15.99,4.08,24,6.09,3.95,.99,5.9,.77,6.19-3.92,1.19-19.36,3.82-38.6,4.09-58.05,.17-12.75,1.93-25.48,1.71-38.28-.11-6.6,4.64-2.31,7.07-3.22,0,0-.12-.04-.12-.04-.14,1.19,.31,1.93,1.56,2.05,7.71,10.29,12.67,22.17,19.21,33.14,3.74,6.27,7.96,12.35,8.5,19.98-3.68,6.67-3.33,8.77,2.41,13.74,.66,.57,1.17,1.11,1.29,2,.67,4.89,1.45,9.76,2.01,14.66,.37,3.21-.04,6.33-2.64,8.69-1.73,1.57-.82,2.49,.74,3.28-6.9,3.86-14.86,4.61-22.1,7.52-3.85,1.55-7.86,2.69-11.73,4.18-5.06,1.94-9.22,4.85-12.21,9.69-3.9,6.31-8.11,12.5-14.06,17.2Z"/><path class="cls-1" d="M582.14,538.44c.37-.37,.73-.74,1.1-1.11,1.15-.09,1.71-.77,1.86-1.86,.38-.36,.75-.72,1.13-1.08,1.18-.09,1.74-.77,1.84-1.9,.75-.73,1.5-1.46,2.24-2.19,2.09,.28,3.05,2.96,5.46,2.56-.68,3.22,1.92,1.63,2.79,1.61,6.5-.16,12.66-2.24,18.94-3.66,13.37-3.03,26.64-6.37,39.17-12.12,2.25-1.03,4.47-2.13,6.71-3.19,1.88,2.18-.6,2.82-1.49,3.86-4.12,4.82-9.5,8.09-14.79,11.37-4.01,2.48-2.95,6.63-2.94,9.82,0,2.53,3.31-.32,5.03,.52,.59,.29,1.22,.49,1.84,.73-9.68,5.75-19.83,10.52-30.43,14.3-6.9,2.46-13.4,5.55-18.82,10.61-.93-.3-2.13-1.13-2.76-.81-5.36,2.7-11.2,3.93-16.79,5.9-2.27,.8-2.22,2.57-.82,4.41,2.26,2.96,7.2,3.52,12.27,1.29,.75-.05,1.51-.1,2.26-.15,1.33,.4,2.6,.54,3.6-.71,15.99-1.58,32.03-3.28,47.19-8.87,15.59-5.75,29.96-14.05,43.92-23.02,1.26-.81,2.51-1.48,3.85-2.08-.52,2.31-2.32,3.64-4.03,4.89-25.84,18.81-51.36,38.19-81.62,49.68-8.88,3.37-16.97,8.8-26.71,10.03-3.06,.39-6.18,.04-9.26,1.4-3.26,1.45-7.16,2.68-8.87-2.57-.32-.98-1.3-1.59-2.41-1.22-1.29,.44-.87,1.49-.74,2.48,.31,2.43,2.2,4.82,.31,7.34-2.77-3.59-2.36-8.21-3.96-12.17-.19-5.97-1.21-11.7-4.86-16.67-1.92-4.16-1.63-9.02-4.07-13.02-.77-1.25,.4-1.67,1.07-2.31,4.29-4.08,8.58-8.17,12.87-12.26,1.13,0,1.76-.58,1.91-1.69,.73-.74,1.46-1.48,2.19-2.22,1.74-.13,2.75-1.01,2.81-2.82,.39-.38,.78-.77,1.17-1.15,5.11-2.82,9.2-6.67,11.83-11.95Z"/><path class="cls-5" d="M787.93,141.56c2.36,3.1,5.51-.38,8.69,1.45,15.34,8.81,27.48,20.77,37.34,35.25,.65,.96,1.22,2.03,2.05,2.81,6.47,6.03,9.71,12.91,6.27,21.81-.5,1.31-.87,2.75-.22,4.34,3.24,7.96,6.34,15.97,9.87,24.93,2.13-4.21,.97-7.68,1.51-10.91,2.98-17.82,2.41-35.71,1.05-53.62-.13-1.64-.02-3.31-.02-4.96,4.82,4.1,6.35,9.68,7.2,15.64,1.91,13.43,3.84,26.87,4.55,40.42,.52,9.83-1.66,19.42-3.32,29.08-1.84,10.75-5.49,20.76-10.55,30.33-2.7,5.11-7.34,8.56-11.48,12.32-2.52,2.28-4.52,4.77-6.3,7.54-2.05,3.18-7.08,5.22-9.92,3.43-3.5-2.2-1.99-5.69-1.73-8.99,.59-7.51,6.56-13.54,5.62-21.44-.14-1.2,.36-2.97,1.23-3.7,3.55-3.01,2.53-6.73,2.92-10.65,.6-6.11-1.97-11.32-2.57-17-1.05-9.85-2.73-19.63-3.63-29.49-.34-3.73-2.41-6.68-4.05-9.29-4.56-7.25-10.23-13.81-15.77-20.41-9.21-10.97-21.79-16.05-34.69-20.55-3.38-1.18-2.29-2.17-.6-3.42,6.02-4.42,11.44-9.49,16.56-14.91Z"/><path class="cls-4" d="M296.33,637.68c.12,2.46,2.76,3.1,4.02,5.59-7.7-.09-14.68-1.69-21.46-4.03-18.32-6.33-36.56-12.91-54.87-19.27-7.1-2.46-14.37-4.03-21.76-1.1-3.92,1.55-7.66,.98-10.95-1.26-15.58-10.57-30.45-21.83-42.12-37.03-10.25-13.35-8.43-26.7-2.67-40.85,2.83-6.94,7.3-11.72,14.3-14.22,2.34-.84,4.96-2.15,7.11-.44,2.07,1.63,.15,4.01-.04,6.07-.04,.48,.07,.98,.11,1.47-5.76,14.7-1.73,27.17,8.24,38.64,10.07,11.58,21.98,20.66,35.26,28.17,18.95,10.72,38.69,19.73,58.57,28.55,8.57,3.8,17.48,6.54,26.25,9.7Z"/><path class="cls-5" d="M572.93,379.01c.98-1.9,3.08-1.97,4.69-2.45,4.42-1.33,5.25-4.72,3.49-7.8-2.44-4.27-2.33-9.3-5.71-13.49-2.27-2.82-2.01-8.27-1.7-12.46,.92-12.25-3.9-23.21-6.67-34.67-4.59-18.94-16.58-33.72-26.59-49.65-5.03-8.01-9.93-16.1-14.85-24.18-.67-1.1-1.64-2.17-1.12-3.66l-.05,.06c17.52,10.6,36.51,18.5,53.82,29.48,2.87,1.82,6.87,1.35,9.19,4.37-5.33,4.08-10.79,7.63-18,5-1.03-.38-2.2-1.44-3.23-.44-1.24,1.22,.32,2.09,.86,2.93,4.83,7.5,9.9,14.85,14.56,22.46,3.78,6.17,6.71,12.69,7.17,20.17,.16,2.53,1.41,5.13,2.63,7.45,3.59,6.84,6.52,13.85,8.73,21.33,1.05,3.54,3.28,7.06,4.43,10.78,1.42,4.57,4.24,5.9,8.56,4.35,2.93-1.06,6.08-1.48,8.64-3.61,3.16-2.63,7.11-2.41,10.94-2.3,.78,.02,1.84-.2,2.09,.86,.28,1.25-.8,1.69-1.69,2.09-8.7,3.96-17.19,8.56-26.19,11.66-9.08,3.14-18.08,6.44-26.97,10.06-2.25,.92-4.37,2.44-7.03,1.67Z"/><path class="cls-4" d="M298.87,494.64c-3.44,.57-6.55-.7-9.63-1.86-12.73-4.77-25.22-10.3-38.21-14.2-7.79-2.34-15.16-5.64-22.89-8-2.8-.85-5.17-2.38-7.2-4.29-2.62-2.46-4-1.25-4.27,1.4-.32,3.16-.89,6.15-1.95,9.16-.85,2.4,.03,4.01,2.94,2.66,3.37-1.56,5.05,.03,5.85,3.08,.87,3.31,3.1,4.48,6.27,4.44-2.3,9.87-2.19,9.71,6.06,15.68,7.64,5.52,16.41,8.96,24.35,13.88,1.16,.99,2.32,1.98,3.48,2.96,1.2,6.89,.74,13.55-2.6,19.83-17.84-6.49-32.71-18.09-48.42-28.25-1.42-1.81-3.25-3.12-5.18-4.31-.62-9.13,2.47-17.75,4.45-26.38,2.78-12.15,4.66-24.4,6.48-36.68,.09-.6,.33-1.18,.63-2.26,3.19,2.38,5.99,4.64,8.96,6.65,21.79,14.71,45.77,24.68,70.74,32.43,4.11,1.28,5.74,2.71,2.73,6.62-1.66,2.15-2.27,4.77-2.59,7.44Z"/><path class="cls-5" d="M678.28,750.47c.4-.51,.69-1.25,1.21-1.48,3.84-1.65,6.46-3.22,.72-6.12-1.7-.86-3.08-2.51-2.93-4.79,.14-2.12-1.37-2.3-2.88-2.48,6.25-3.83,13.4-5.49,20.2-7.83,26.86-9.25,51.84-22.25,76.04-36.9,12.56-7.6,25.12-15.22,36.81-24.17,3.7-2.83,6.9-6.22,10.39-9.27,4.99-4.35,10.44-5.99,16.8-5.84,2.1,.05,4.08,.21,5.16,2.25,1.17,2.21-.38,3.85-1.59,5.36-5.74,7.12-12.25,13.46-19.45,19.1-17.73,13.88-36.27,26.63-56.24,37-15.75,8.18-31.93,15.55-48.29,22.51-10.08,4.29-20.29,8.2-30.68,11.65-1.69,.56-3.35,1.63-5.29,1.01Z"/><path class="cls-5" d="M513.36,455.39c-1.19-6.03,3.28-7.55,7.44-8.4,13.89-2.82,26.36-9.58,39.75-13.79,13.63-4.29,25.34-12.72,38.22-18.66,3.72-1.72,7.29-3.96,11.62-3.92-.7,2.1-.42,4.08,.2,6.21,3.09,10.55,4.95,21.28,4.91,32.36-.02,4.02-1.8,5.8-5.06,6.9-7.85,2.65-15.7,5.29-23.58,7.85-6.73,2.19-13.13-.49-19.62-1.55-8.35-1.36-16.7-2.41-25.16-3.02-9.62-.69-19.15-2.59-28.72-3.97Z"/><path class="cls-4" d="M333.05,389.69c.35,2.55-1.7,1.52-2.68,1.61-5.34,.53-10.61-.67-15.92-.82-8.99-.26-17.98-.09-26.97-.17-2.13-.02-3.63,.29-4.67,2.65-4.46,10.08-9.68,19.84-12.61,30.55-1,3.64-3.99,5.68-6.48,8.05-2.34,2.23-3.97,4.41-2.34,7.72-6.58-2.82-12.99-5.87-18.18-11.01-1.87-1.85-2.72-3.53-1.12-6.06,12.71-20.04,19.04-42.52,24.73-65.24,1.73-6.92,3.71-13.79,5.58-20.68,.26-.94,.62-1.84,1.01-1.96,10.86,13.17,17.58,28.45,24.81,43.43,.54,2.13,2.21,3.4,3.96,4.17,9.85,4.3,19.88,7.98,30.88,7.74Z"/><path class="cls-5" d="M689.22,85.94c3.8,6.24,8.16,12,13.59,16.98,3.43,3.15,7.05,5.22,11.78,5.63,15.87,1.38,30.81,6.36,45.57,12.03,5.89,2.26,11.97,3.95,18.33,4.34-1.43,2.97-4.24,4.03-7.07,4.89-12.21,3.73-24.1,8.72-36.87,10.29-9.85,1.21-19.79,1.76-29.57,3.59-.49,.09-1,.08-1.48,.18-9.06,2.02-9.19,2.01-9.02-7.1,.29-15.5-.72-30.84-4.83-45.88-.43-1.57-.3-3.3-.43-4.96Z"/><path class="cls-5" d="M606.42,93.7c8.14,3.29,15.86,7.34,22.89,12.63,2.39,1.79,4.72,3.67,7.01,5.59,9.05,7.6,22.87,4.19,29.34-5.12,6.13-8.81,13.51-16.74,18.43-26.39-.65,7.76-3.27,15.07-5.3,22.5-3.19,11.67-5.66,23.53-9.37,35.08-2.57,8-6.22,15.22-12.15,21.23-2.4,2.44-4.38,2.69-7.03-.1-10.94-11.49-19.59-24.48-27.11-38.42-4.48-8.31-10.09-16.01-15.24-23.96-.63-.97-1.57-1.74-1.47-3.05Z"/><path class="cls-3" d="M561.18,614.71c1.89-2.53,0-4.91-.31-7.34-.13-.99-.55-2.04,.74-2.48,1.11-.38,2.09,.24,2.41,1.22,1.71,5.25,5.61,4.02,8.87,2.57,3.08-1.37,6.2-1.02,9.26-1.4,9.74-1.23,17.83-6.66,26.71-10.03,30.27-11.49,55.78-30.87,81.62-49.68,1.71-1.25,3.51-2.58,4.03-4.89,5.61-5.15,11.81-9.68,16.71-15.59,1.62-1.96,2.67-1.7,3.2,.81,.97,4.57,2.38,8.99,4.4,13.21,1.47,3.08-.46,4.87-2.46,6.83-13.82,13.51-30.13,23.37-47.01,32.45-29.72,16-61.63,26.13-93.98,35-3.87,1.06-7.89,2.35-12.07,2.13-.48-.3-.96-.59-1.44-.89-1.05-.35-.55-1.25-.68-1.92Z"/><path class="cls-4" d="M498.56,524.11c-1.56-.8-2.47-1.71-.74-3.28,2.6-2.36,3.01-5.47,2.64-8.69-.56-4.9-1.34-9.77-2.01-14.66-.12-.88-.63-1.43-1.29-2-5.74-4.97-6.09-7.06-2.41-13.74,6.63-.22,12.99,.64,19.53,2.28,5.76,1.44,12.15,1.04,18.17,2.24,14.8,2.96,29.98,3.76,44.56,7.93,3,.86,5.49,2.11,2.55,5.7-1.4-.16-2.86-.43-3.13,1.61-9.72,0-18.18,4.67-27.17,7.36-16.91,5.05-33.47,11.26-50.71,15.23Z"/><path class="cls-3" d="M595.77,532.86c-2.4,.39-3.37-2.28-5.46-2.56,1.53-1.57,2.1-4.07,4.58-4.73,.24,.19,.62,.59,.69,.54,.71-.47-.11-.66-.23-1,.5-1.19,1.2-2.18,2.52-2.55,.33,.19,.54,.94,1.02,.22,.05-.07-.37-.45-.56-.68,1.07-2.01,1.8-4.28,4.13-5.31,.16,.39,.31,.78,.47,1.17,.76-.34,.44-.95,.36-1.49,0,0-.02,.08-.01,.08,4.85-1.78,12.33-13.33,11.63-18.12-.05-.36-1.06-.58-1.63-.86,.24-1.56,.48-3.12,.72-4.68,8.17-2.72,16.34-5.44,24.51-8.16,.86,.11,1.56-.11,1.96-.95,1.5-.58,3-1.15,4.5-1.73,1.42,.56,1.9-.44,2.38-1.44,.25-.17,.52-.25,.82-.26,.49-.02,1.15,.17,1.43-.08,7.58-6.64,15.12-13.32,22.65-20.02,1.09-.97,.48-1.72-.51-2.31-.06-1.74,1.15-1.53,2.26-1.48,.21,.16,.43,.32,.64,.48-.15-.21-.3-.42-.45-.63,4.59-4.47,10.97-6.83,14.4-12.78,1.22-2.12,3.1-.64,3.38,1.27,.85,5.92,1.71,11.87,1.16,17.88-.18,2.01-1.71,3.23-3.07,4.39-14.6,12.46-28.05,26.23-45.77,34.84-13.98,6.8-28.19,13.52-40.22,23.76-2.14,1.82-4.33,3.59-6.49,5.38-.21-.2-.43-.4-.64-.6-.11,.52-.21,1.03-.32,1.55-.29,.29-.57,.57-.86,.86Z"/><path class="cls-5" d="M564.19,135.2c6.01,1.36,10.18,5.85,15.06,9.07,6.3,4.14,12.29,8.76,18.35,13.13,1.28-.87,.97-1.94,.73-2.82-1.99-7.12-2.19-14.4-1.85-21.69,.27-5.85-.91-11.51-1.83-17.21-.28-1.76-1.09-3.59,.83-4.97,4.01,7.32,5.81,15.48,8.76,23.2,7.45,19.53,12.65,39.73,16.88,60.18,.21,1.01,.38,1.97-.77,2.98-6.6-6.28-13.43-12.37-19.8-18.93-9.6-9.89-19.01-19.98-28.22-30.25-3.34-3.72-7.78-6.97-8.15-12.69Z"/><path class="cls-3" d="M651.03,541.81c-.61-.24-1.25-.44-1.84-.73-1.72-.84-5.03,2.01-5.03-.52,0-3.19-1.07-7.34,2.94-9.82,5.3-3.28,10.68-6.55,14.79-11.37,.88-1.04,3.37-1.68,1.49-3.86,8.28-5.47,16.61-10.86,24.45-16.99,4.89-3.82,9.17-8.08,12.94-14.54,1.65,6.59,3.22,12.24,4.41,17.97,.56,2.68-1.44,4.6-3.13,6.48-8.96,9.96-19.78,17.34-31.8,23.1-5.94,2.84-11.03,7.3-17.45,9.26-.23-.15-.46-.3-.69-.45,.14,.23,.27,.45,.41,.68-.27,.71-.77,.98-1.51,.81Z"/><path class="cls-4" d="M261.64,562.55c.46,.86,.85,1.78,1.4,2.58,1.73,2.48,.66,3.29-1.87,3.16-9.49-.48-18.81-1.73-27.39-6.2-10.94-5.7-21.61-11.85-31.58-19.16-1.62-1.19-3.79-1.12-5.79-1.21,1.2-6.52,2.6-12.99,5.23-19.11,2.71,.74,3.19,4,5.67,5.01,15.25,16.1,34.98,25.23,54.33,34.94Z"/><path class="cls-6" d="M333.05,389.69c-11,.24-21.03-3.44-30.88-7.74-1.75-.76-3.42-2.04-3.96-4.17,2.7-1.62,.57-3.7,.19-5.3-1.13-4.76,.67-7.97,4.47-10.46,1.38-.91,2.96-1.59,4.17-2.67,3.45-3.08,7.26-4.33,11.76-2.83,4.35,3.96,6.54,9.37,9.59,14.21,1.55,6.32,3.1,12.64,4.65,18.95Z"/><path class="cls-5" d="M561.2,194.42c9.95-1.98,9.8-1.96,8.69-12.37-.39-3.66-1.13-7.42,1.16-11.09,1.87-3-.97-5.63-2.16-8.2-1.11-2.39-2.66-4.56-3.07-7.25,3.26,.94,3.56,4.19,4.8,6.54,6.8,12.88,15.06,24.98,20.76,38.45,1.16,2.75,1.96,5.63,2.09,8.64,.1,2.29-.98,3.23-3.04,2-9.65-5.73-20.09-10.09-29.23-16.72Z"/><path class="cls-4" d="M644.97,482.05c-1.5,.58-3,1.15-4.5,1.72-.93-.25-1.61,0-1.96,.95-8.17,2.72-16.34,5.44-24.51,8.16-1.33-1.9-2.57-3.86-3.99-5.68-3.42-4.36-3.12-5.86,2.26-7.45,9.97-2.94,20.14-5.19,29.93-8.76,1.38,1.15,2.6,2.86,4.18,3.33,4.07,1.2,3.1,3.46,1.79,6.02-.3,.01-.57,.1-.82,.26-1.18-.15-1.89,.46-2.38,1.44Z"/><path class="cls-1" d="M576.44,501.51c.27-2.04,1.72-1.77,3.13-1.61-4.04,8.67-11.27,14.67-18,20.97-13.23,12.38-24.6,26.58-38.26,38.51-2.7,2.35-1.99,5.42-2.05,8.35-.27,.29-.54,.59-.81,.88l-.02,.02c-2.1-4.68-1-8.85,2.72-11.99,13.84-11.67,24.96-26,38.05-38.42,5.46-5.18,10.19-11.12,15.25-16.71Z"/><path class="cls-1" d="M648.17,480.34c1.31-2.56,2.28-4.81-1.79-6.02-1.58-.47-2.8-2.18-4.18-3.33,7.51-3.5,15.68-5.41,22.94-9.54,.44-.26,.88-.51,1.31-.77,0,0-.01,0-.01,0,.39-.26,.78-.52,1.16-.78,1.17-1.11,2.56-1.75,4.15-1.98,.99,.59,1.59,1.34,.51,2.31-7.53,6.7-15.07,13.38-22.65,20.02-.28,.25-.95,.06-1.43,.08Z"/><path class="cls-3" d="M593.68,577.51c-5.07,2.22-10.01,1.67-12.27-1.29-1.41-1.84-1.45-3.62,.82-4.41,5.59-1.97,11.44-3.2,16.79-5.9,.62-.31,1.82,.52,2.76,.81-1.95,3.14-5.02,5.11-7.83,7.3-1.62,1.26-1.93,2.18-.26,3.48Z"/><path class="cls-5" d="M207.3,527.61c-2.47-1-2.96-4.26-5.67-5.01,1.74-5.34,3.35-10.73,5.83-15.79,1.93,1.19,3.76,2.51,5.18,4.32-1.78,5.49-3.56,10.98-5.34,16.48Z"/><path class="cls-1" d="M533.4,648.63c3.08,.33,3-1.74,2.93-3.84-.18-5.81-2.66-11.16-3.41-16.84-.82-6.18-3.27-12.03-3.55-18.3,0,0,.11-.09,.11-.09,.35-.05,.69-.1,1.04-.15,.14,.33,.28,.66,.42,.99-.48,.82-.4,1.54,.39,2.13,2.56,10.41,5.23,20.79,7.64,31.24,1.38,6,.39,6.74-5.57,4.87Z"/><path class="cls-1" d="M374.43,650.36c3.6-2.52,4.46-7.27,8.01-9.83-1.17,4,.38,4.48,3.81,3.17,3.03-1.16,6.24-1.73,8.8-4.04,1.5-1.36,3.48-1.78,5.31-.17-8.47,4.05-16.57,8.97-25.93,10.88Z"/><path class="cls-1" d="M613.28,497.57c.56,.28,1.57,.5,1.63,.86,.71,4.8-6.77,16.34-11.63,18.12,3.02-5.32,6.04-10.64,9.06-15.96,.65-.34,.83-.82,.42-1.47,.17-.52,.34-1.03,.52-1.55Z"/><path class="cls-5" d="M591.5,266.59c3.03,.29,5.32,2.35,8.06,3.37,2.66,.99,3.27,.14,2.91-2.31,4.24,.52,4.37,4.9,6.69,7.45-6.22-2.26-13.13-2.84-17.67-8.51Z"/><path class="cls-1" d="M529.38,609.65c-2.58-5.76-3.78-11.9-4.83-18.06-.28-1.64-.42-3.16-1.48-4.62-.97-1.34-.81-2.89,1.21-3.51,.62,2.75,1.24,5.51,1.87,8.26-.1,.08-.19,.17-.29,.25,.16,.15,.32,.31,.48,.46,.13,.42,.27,.84,.4,1.26-.4,1.05-.5,2.04,.6,2.77,.21,.63,.42,1.26,.62,1.9-.08,.14-.25,.32-.21,.41,.13,.26,.34,.49,.52,.73,.25,1.27,.51,2.54,.76,3.82-.09,.14-.28,.32-.24,.4,.13,.27,.33,.5,.51,.74,.27,1.1,.54,2.21,.82,3.31-.2,.6-.41,1.2-.61,1.8,0,0-.11,.09-.11,.09Z"/><path class="cls-3" d="M582.14,538.44c-2.63,5.28-6.72,9.13-11.83,11.95,2.9-5.02,7.56-8.29,11.83-11.95Z"/><path class="cls-5" d="M334.64,648.02c-6.2-.42-12.1-1.92-17.54-5,6.02,1.05,12.45,.69,17.54,5Z"/><path class="cls-3" d="M552.36,585.87c3.64,4.97,4.67,10.7,4.86,16.67-2.62-5.26-3.92-10.91-4.86-16.67Z"/><path class="cls-5" d="M618.07,407.34c.9-2.1,1.14-4.2-.06-6.28,2.61-.91,4.32-.16,4.44,2.75,.13,2.98-1.33,4.32-4.38,3.53Z"/><path class="cls-1" d="M523.68,581.65c-4.36-3.52-3.66-8.3-3.26-13.02l.02-.02c.31,0,.61-.05,.9-.14,.46,2.67,.91,5.35,1.37,8.02-.42,1.13-.44,2.18,.54,3.06,.14,.69,.29,1.39,.43,2.08Z"/><path class="cls-5" d="M347.44,659.61c-1.14-3.18-2.29-6.37-3.43-9.55,4.68,1.91,3.75,5.84,3.43,9.55Z"/><path class="cls-5" d="M351.42,668.63c-2.14-1.93-3.46-4.25-3.51-7.2,2.25,1.87,3.65,4.16,3.51,7.2Z"/><path class="cls-5" d="M316.3,642.84c-2.79-.05-5.42-.72-7.85-2.12,3.4-2.19,5.51,.37,7.85,2.12Z"/><path class="cls-5" d="M453.46,782.73c1.33-1.25,2.65-1.27,3.96,.03-1.33,1.17-2.65,1.19-3.96-.03Z"/><path class="cls-5" d="M341.56,649.39c-1.48,.23-2.96,.45-4.08-.91,1.7-1.21,3.12-1.18,4.08,.91Z"/><path class="cls-5" d="M684.45,78.73c-.87-.69-.7-1.7,.07-1.95,1.52-.5,1.84,.69,1.89,1.92-.65,0-1.3,.02-1.96,.03Z"/><path class="cls-3" d="M569.14,551.54c-.06,1.81-1.06,2.69-2.81,2.82,0-1.88,.87-2.88,2.81-2.82Z"/><path class="cls-5" d="M430.57,661.75c-2.06,.91-4.09,1.01-6.09-.17,2.03,.06,4.06,.12,6.09,.17Z"/><path class="cls-5" d="M738.05,676.24c.46-1.26,1.17-1.95,2.54-1.08-.46,1.27-1.26,1.74-2.54,1.08Z"/><path class="cls-3" d="M564.14,556.58c-.15,1.12-.78,1.68-1.91,1.69,.27-.98,.9-1.55,1.91-1.69Z"/><path class="cls-3" d="M585.1,535.47c-.16,1.08-.71,1.77-1.86,1.86,.62-.62,1.24-1.24,1.86-1.86Z"/><path class="cls-3" d="M588.07,532.49c-.1,1.13-.67,1.81-1.84,1.9,.61-.64,1.23-1.27,1.84-1.9Z"/><path class="cls-3" d="M523.25,579.56c-.98-.88-.96-1.94-.54-3.06,.81,.91,.82,1.96,.54,3.06Z"/><path class="cls-3" d="M527.34,596.46c-1.11-.73-1-1.72-.6-2.77,.91,.77,.88,1.75,.6,2.77Z"/><path class="cls-3" d="M599.55,576.65c-1,1.25-2.27,1.11-3.6,.71,.99-1.3,2.3-.98,3.6-.71Z"/><path class="cls-5" d="M301.37,638.74c-.86,.15-1.61-.04-2.17-.75,.92-.33,1.69-.21,2.17,.75Z"/><path class="cls-4" d="M467.04,428.62c-1.26-.12-1.7-.87-1.56-2.05,1.09,.25,1.17,1.27,1.56,2.05Z"/><path class="cls-3" d="M612.77,499.12c.4,.65,.23,1.13-.42,1.47-1.52-.97,.06-1.04,.42-1.47Z"/><path class="cls-1" d="M603.3,516.47c.08,.55,.4,1.15-.36,1.49-.16-.39-.31-.78-.47-1.17,.28-.11,.56-.21,.84-.32Z"/><path class="cls-1" d="M596.63,532.01c.11-.52,.21-1.03,.32-1.55,.21,.2,.43,.4,.64,.6-.32,.32-.64,.63-.96,.95Z"/><path class="cls-3" d="M529.49,609.55c.2-.6,.41-1.2,.61-1.8,.14,.55,.29,1.1,.43,1.64-.35,.05-.69,.1-1.04,.15Z"/><path class="cls-3" d="M531.33,612.52c-.79-.59-.87-1.31-.39-2.13,.6,.63,.65,1.35,.39,2.13Z"/><path class="cls-5" d="M353.04,670.96c-.28-.38-.56-.76-.83-1.14,.63,.12,.93,.49,.83,1.14Z"/><path class="cls-5" d="M354.41,672.67l-.96-1.06c.32,.35,.64,.71,.96,1.06Z"/><path class="cls-5" d="M604.28,91.01c.54,.04,.8,.27,.57,.84-.19-.28-.38-.56-.57-.84Z"/><path class="cls-5" d="M688.68,84.46c.17,.45,.33,.89,.5,1.34-.17-.45-.33-.89-.5-1.34Z"/><path class="cls-5" d="M668.25,753.45c.29-.52,.67-.76,1.25-.42-.42,.14-.83,.28-1.25,.42Z"/><path class="cls-3" d="M521.34,568.48c-.29,.09-.59,.13-.9,.14,.27-.29,.54-.59,.81-.88,.3,.22,.33,.46,.09,.75Z"/><path class="cls-3" d="M526.33,592.43c-.16-.15-.32-.31-.48-.46,.1-.08,.19-.17,.29-.25,.32,.17,.38,.41,.19,.71Z"/><path class="cls-3" d="M667.6,459.92c-.39,.26-.78,.52-1.16,.78,.39-.26,.78-.52,1.16-.78Z"/><path class="cls-3" d="M528.26,599.49c-.18-.24-.39-.46-.52-.73-.04-.08,.13-.27,.21-.41,.15,.24,.33,.47,.44,.72,.04,.1-.08,.27-.13,.41Z"/><path class="cls-3" d="M666.45,460.69c-.44,.26-.88,.51-1.31,.77,.24-.6,.67-.86,1.31-.77Z"/><path class="cls-3" d="M529.28,604.45c-.18-.24-.38-.47-.51-.74-.04-.08,.15-.27,.24-.4,.14,.24,.31,.48,.41,.74,.04,.1-.09,.27-.14,.4Z"/><path class="cls-1" d="M561.86,616.63c.48,.3,.96,.59,1.44,.89-.48-.3-.96-.59-1.44-.89Z"/><path class="cls-5" d="M595.57,261.11c-.59,.21-.79,0-.65-.59,.33,.07,.55,.27,.65,.59Z"/><path class="cls-5" d="M305.23,639.89l-.37,.06s-.32-.21-.32-.21c.38-.66,.58-.46,.69,.15Z"/><path class="cls-5" d="M557.39,192.54c.5-.49,.68-.25,.71,.31-.3,.04-.53-.07-.71-.31Z"/><path class="cls-5" d="M562.3,133.03c.63-.09,.9,.16,.75,.8-.25-.27-.5-.53-.75-.8Z"/><path class="cls-5" d="M784.33,123.05c.3-.17,.6-.34,.9-.51,.05,.79-.13,1.16-.9,.51Z"/><path class="cls-5" d="M437.41,662.67c-.34-.07-.68-.15-1.02-.22,.5-.65,.82-.5,1.02,.22Z"/><path class="cls-6" d="M389.59,266.92c.2-.19,.43-.33,.7-.4,4.19-1.23,9.04-.52,12.37-4.25,1.6-.21,3.2-.42,4.79-.63,6.95,1.99,14.02,.8,21.03,.64,1.05-.02,2.04-1.55,3.09-2.33,3.07-2.3,3.21-6.97,6.13-8.85,6.09-3.91,7.53-10.04,9.53-16.15,3.59-10.93,3.7-10.91,14.17-8.24,0,0,.01,.01,.01,.01,.05,.86,.29,1.55,1.36,1.49,0,0,.2,.21,.19,.21-.19,.65,.08,.92,.73,.88,0,0,.11,.16,.11,.16,.7,2.93,.44,6.45,4.54,7.26,0,0,.05,.06,.05,.06,.12,1.59-.39,3.5,2.03,3.9,0,0,.01,.03,.01,.03,.19,.36,.39,.73,.58,1.09,.47,.96,.95,1.93,1.42,2.89,.21,.36,.42,.73,.62,1.09,2.7,11.71,10.66,14.83,21.66,13.8,4.98-.47,9.89,1.31,14.57,2.96,8.97,3.17,11.64,12.01,6.52,21.31-4.57,8.29-11.24,14.88-18.51,20.72-5.08,4.08-6.96,7.88-4.61,14.72,2.5,7.25,4.05,15.05,3.59,23.01-.46,7.84-8.8,13.44-15.95,10.37-7.33-3.16-14.66-6.43-21.21-11.02-4.7-3.29-8.14-2.34-12.32,1.07-6.84,5.58-14.65,9.67-23.46,11.32-6.88,1.29-10.64-1.91-10.53-8.87,.06-3.81,.58-7.61,.89-11.42,1.12-.77,2.3-1.52,.95-3.06,.12-.61,.24-1.22,.36-1.83,4.35-5.98,4.02-13.02,4.24-19.86,.07-2.22-2.96-3.38-2.86-6.13,.23-6.8-6.35-9.16-9.52-13.76-.33-.48-1.97-.44-2.82-.12-5.68,2.1-8.69-1.35-11.51-5.32-3.63-5.12-3.23-10.94-2.94-16.74Zm25.83,25.95l-.25-.03c1.04,3.68,4.67,5.17,6.78,7.95,1.22,1.61,2.93,3.11,2.38,5.18-2.75,10.36-5.71,20.66-8.6,30.98-1.58,3.05-1.66,5.89,1.18,8.31,2.19-1.69,4.42-3.41,6.65-5.13,10.47-4.33,21.38-7.92,28.48-17.72,.96-1.32,2.15-1.2,3.25,.2,7.15,9.09,18.05,12.56,27.53,18.11,4.09,2.4,5.31,1.36,4.85-3.35-.09-.98-.41-1.95-.7-2.9-2.42-7.78-4.05-15.75-5.88-23.68-1.06-4.6,.57-7.27,3.48-10.51,6-6.67,13.96-11.16,19.52-18.24,2.28-.87,4.65-2.19,4.03-4.86-.66-2.86-3.62-1.69-5.56-1.71-9.45-.1-18.55-2.89-27.91-3.51-3.19-.21-4.37-1.95-5.36-4.79-2.88-8.25-5.84-16.51-11.16-23.63-1.59-2.62-2.44-5.78-5.55-7.75-4.88,10.89-9.79,21.56-14.42,32.35-1.42,3.3-3.1,4.86-6.97,4.74-10.94-.36-21.73,1.34-32.73,2.99,2.71,7.12,10.34,9.38,14.02,15.25v.44s.42,.11,.42,.11c.73,.65,.97,2.3,2.53,1.21Z"/><path class="cls-4" d="M423.13,142.09c3.87-3.79,8.74-2.41,13.12-2.04,12.13,1.03,12.01,1.22,14.56-10.87,.64-3.06,.4-6.81,4.15-8.44,1.74,3.4,3.54,6.77,3.82,10.69-.41,5.28-1.03,10.56-1.19,15.85-.27,8.56-4.1,11.15-12.16,8-2.04-.8-4.23-2.5-6.25,.12-3.65-3.05-7.22-6.21-10.99-9.1-1.75-1.34-4.38-1.58-5.04-4.23Z"/><path class="cls-1" d="M439.16,155.42c2.02-2.63,4.21-.93,6.25-.13,8.06,3.15,11.9,.56,12.16-8,.17-5.29,.78-10.57,1.2-15.84,1.51,4.84,2.09,10.67,9.66,8.99,3.53,.12,7.06,.25,10.58,.37,4.25,2.45,4.4,3.38,.61,6.45-2.02,1.64-4.6,2.64-6.44,4.43-2.29,2.23-6.76,2.5-6.62,7.01-2.3-.81-.22-6.24-4.09-4.66-5.31,2.16-12.32,2.78-14.84,8.49-2.3,5.23-7.09,8.54-8.9,13.86-2.39,1.77-3.4,.97-2.71-1.72,.74-2.85,2.07-5.54,2.83-8.38,.95-3.57,2.7-7.19,.31-10.88Z"/><path class="cls-5" d="M466.55,158.71c-.13-4.51,4.33-4.78,6.62-7.01,1.84-1.79,4.42-2.79,6.44-4.43,3.79-3.07,3.64-4.01-.61-6.45,3.53,.25,5.71,1.17,5.98,2.72,.39,2.21-1.51,3.17-2.74,4.43-1.03,1.06-2.14,2.16-3.43,2.85-8.5,4.61-8.58,11.66-5.85,19.59,.43,1.26,.86,2.52,1.22,3.79,.68,2.44-1.32,3.96-2.09,5.9-1.35,3.4-3.35,.77-4.75,.31-9.61-3.2-19.07-5.88-28.83-.27-2.24,1.29-3.95,.47-3.76-2.93,.17-3.12,1.59-5.79,2.52-8.5,3.91-11.39,.72-12.98-7.9-18.86-2.05-1.4-4.25-2.62-6.16-4.19-1.11-.91-2.8-2.33-.09-3.57,.66,2.65,3.29,2.89,5.04,4.23,3.77,2.89,7.33,6.05,10.99,9.1,2.39,3.7,.65,7.32-.31,10.88-.76,2.84-2.1,5.53-2.83,8.38-.7,2.69,.32,3.49,2.71,1.72,.32,1.41,1.15,.77,1.81,.4,3.6-2.03,7.65-3.39,10.61-6.38,2.69-2.72,5-2.19,7.77-.16,2.66,1.95,5.56,3.61,8.48,5.15,1.05,.56,2.45,1.7,3.67,.67,1.29-1.1,.93-2.85,.46-4.22-1.17-3.42-2.56-6.77-3.86-10.15-.05-1.16,.19-2.44-1.18-3.1l.08,.09Z"/><path class="cls-5" d="M389.59,266.92c-.3,5.8-.69,11.62,2.94,16.74,2.82,3.98,5.83,7.42,11.51,5.32,.84-.31,2.49-.36,2.82,.12,3.17,4.61,9.75,6.97,9.52,13.76-.09,2.75,2.93,3.91,2.86,6.13-.21,6.84,.11,13.87-4.24,19.86-.45-3.17,.3-6.23,1.1-9.22,1.37-5.11,.13-8.5-4.59-11.61-10.25-6.77-18.28-15.69-22.68-27.45-1.24-3.32-1.44-6.78-1.33-10.27,.05-1.54,.11-3.05,2.09-3.39Z"/><path class="cls-5" d="M461.41,226.71c-10.47-2.67-10.58-2.69-14.17,8.24-2,6.1-3.44,12.23-9.53,16.15-2.92,1.88-3.07,6.55-6.13,8.85-1.05,.79-2.04,2.31-3.09,2.33-7.01,.16-14.08,1.35-21.03-.64,5.78-1.59,11.74-1.95,17.67-1.94,3.78,0,5.84-1.45,7.21-4.77,3.43-8.32,7.55-16.3,12.18-24.02,.94-1.57,1.85-3.17,2.96-4.61,5.17-6.67,8.8-6.54,13.94,.41Z"/><path class="cls-5" d="M468.43,140.44c-7.57,1.68-8.15-4.15-9.66-8.99-.28-3.93-2.07-7.31-3.82-10.71,4.06,.76,4.37,4.61,5.9,7.35,2.36,4.23,2.5,9.78,7.57,12.35Z"/><path class="cls-5" d="M402.65,262.27c-3.33,3.73-8.18,3.02-12.37,4.25,3.47-3.33,7.82-4.06,12.37-4.25Z"/><path class="cls-5" d="M468.35,236.72c-4.1-.8-3.84-4.33-4.54-7.26,2.38,1.88,3.69,4.42,4.54,7.26Z"/><path class="cls-5" d="M470.42,240.68c-2.41-.4-1.91-2.31-2.03-3.9,1.39,.93,1.88,2.33,2.03,3.9Z"/><path class="cls-5" d="M414.64,330.69c1.35,1.54,.17,2.29-.95,3.06-.04-1.13-.3-2.33,.95-3.06Z"/><path class="cls-5" d="M462.78,228.21c-1.07,.07-1.31-.63-1.36-1.49,.83,.15,1.19,.73,1.36,1.49Z"/><path class="cls-5" d="M473.06,245.78c-.21-.36-.42-.73-.62-1.09,.57,.15,.82,.49,.62,1.09Z"/><path class="cls-5" d="M471.01,241.8c-.19-.36-.39-.73-.58-1.09,.19,.36,.39,.73,.58,1.09Z"/><path class="cls-5" d="M524.46,230.65c-.2-.11-.41-.22-.61-.32,.11,0,.25-.05,.31,0,.11,.1,.17,.25,.25,.38,0,0,.05-.06,.05-.06Z"/><path class="cls-5" d="M463.7,229.3c-.65,.04-.92-.23-.73-.88,.24,.29,.49,.59,.73,.88Z"/><path class="cls-6" d="M511.3,169.85c-.22-.15-.44-.3-.67-.46,.1-.12,.19-.24,.29-.37,.18,.21,.36,.42,.54,.64,0,0-.16,.18-.16,.18Z"/><path class="cls-6" d="M248.8,729.32c-4.5-.09-7.75-1.99-11.29-2.9-13.62-3.48-27.29-6.68-39.93-13.33-7.8-4.1-14.87-9.34-22.67-13.45-5.37-2.83-8.81-8.41-12.29-13.47-1.81-2.63-1.21-5.36,.51-7.93,1.65-2.47,3.81-4.57,5.05-7.37,1.53-3.44,4.03-1.48,5.84-.45,9.7,5.48,19.32,11.1,28.91,16.76,13.04,7.7,26.74,14.08,40.37,20.6,4.05,1.94,8,4.06,12.02,6.06,2.33,1.16,3.37,2.52,1.51,5.03-2.07,2.78-4.24,5.52-5.42,8.88-.53,1.51-2.03,1.51-2.62,1.57Z"/><path class="cls-1" d="M423.13,581.91c-.77-2.95,1.02-3.84,3.42-4.22-.27,2.11-1.65,3.33-3.42,4.22Z"/><path class="cls-1" d="M394.59,619.68c-.16-1.22,.36-1.97,1.54-2.28,.31,1.32-.29,2.02-1.54,2.28Z"/><path class="cls-1" d="M391.6,624.7c.2-1.26,.65-2.36,1.87-2.98,.05,1.42-.24,2.62-1.87,2.98Z"/><path class="cls-1" d="M388.21,630.45c0-1.12,.19-2.12,1.43-2.52-.04,1.09-.16,2.13-1.43,2.52Z"/><path class="cls-1" d="M396.18,617.35c-.03-1.11,.27-2.09,1.2-2.79,.16,1.17,.26,2.32-1.2,2.79Z"/><path class="cls-1" d="M385.91,633.73c-.19-.59,.08-.86,.64-.95-.21,.32-.43,.64-.64,.95Z"/><path class="cls-1" d="M385.03,635.73c-.25-.54-.01-.84,.5-1-.17,.33-.33,.67-.5,1Z"/><path class="cls-6" d="M207.3,527.61c1.78-5.49,3.56-10.98,5.34-16.48,15.7,10.16,30.57,21.76,48.42,28.25,.09-.25,.19-.51,.28-.77-.64,.91,.16,1.14,.71,1.48,5.09,5.4,12.69,6.64,18.7,11.41-3.63,1.32-4.65,4.26-4.49,7.56,.18,3.76-1.57,4.28-4.81,4-3.24-.29-6.48-1.46-9.81-.51-19.36-9.71-39.09-18.84-54.34-34.94Z"/><path class="cls-6" d="M260.19,516.59c-7.95-4.92-16.72-8.35-24.35-13.88-8.25-5.97-8.37-5.81-6.06-15.68,3.61-5.48,4.05-5.96,9.24-1.15,7.7,7.13,17.89,10.55,25.31,17.93-.68,4.48-.39,9.28-4.13,12.78Z"/><path class="cls-3" d="M260.19,516.59c3.74-3.5,3.45-8.29,4.13-12.78,2.51-.02,2.76,2.04,3.27,3.71,1.05,3.42-.26,6.82-.39,10.22-.07,1.85-1.98,1.9-3.54,1.81-1.16-.99-2.32-1.98-3.48-2.96Z"/><path class="cls-4" d="M262.06,540.1c-.55-.34-1.35-.57-.71-1.48,.24,.49,.47,.99,.71,1.48Z"/><path class="cls-3" d="M365.16,513.59c-2.61,4.35,1.45,7.98,1.31,12.06-3.67-2.4-5.46-6.53-8.66-9.38-1.16-1.03-2.9-2.58-1.89-4.09,1-1.49,3.01-.43,4.56,.05,.31,.11,.62,.23,.93,.34,1.25,.34,2.49,.68,3.74,1.02Z"/><path class="cls-1" d="M361.42,512.57c-.31-.12-.62-.23-.93-.34,.51-.43,.8-.26,.93,.34Z"/><path class="cls-1" d="M644.97,482.05c.49-.98,1.2-1.6,2.38-1.44-.48,1-.96,2-2.38,1.44Z"/><path class="cls-1" d="M638.51,484.72c.34-.95,1.03-1.2,1.96-.95-.4,.84-1.1,1.06-1.96,.95Z"/><path class="cls-1" d="M598.33,522.1c.2,.23,.61,.61,.56,.68-.47,.72-.69-.04-1.02-.22,.04-.26,.19-.42,.45-.46Z"/><path class="cls-1" d="M595.35,525.11c.12,.33,.94,.52,.23,1-.08,.05-.45-.35-.69-.54,.09-.22,.24-.37,.46-.46Z"/><path class="cls-1" d="M674.2,456.31c.15,.21,.3,.42,.45,.63-.21-.16-.43-.32-.64-.48,0,0,.19-.15,.19-.15Z"/><path class="cls-1" d="M652.53,541c-.14-.23-.27-.45-.41-.68,.23,.15,.46,.3,.69,.45,0,0-.28,.23-.28,.23Z"/><path class="cls-1" d="M423.56,340.12c-2.23,1.72-4.45,3.44-6.65,5.13-2.85-2.41-2.77-5.26-1.18-8.31,2.79-.33,9.42-7.91,8.59-10.84-1.24-4.42,.84-8.05,1.55-11.99,.6-3.31,3.21-7.66,1.94-9.61-3.07-4.74-6.79-9.6-12.65-11.67,0,0,.25,.03,.25,.03-.38-1.37-1.55-1.09-2.53-1.21l-.42-.11s0-.44,0-.44c-.75-6.58-.72-6.69,6.12-4.96,9.45,2.39,18.28,6.74,27.87,8.72,6.32,1.31,7.39,.76,8.74-5.65,.27-1.28,.28-2.63,.36-3.95,.68-12.05,2.11-24.08,.17-36.16-.32-2.02-1.12-4.9,2.38-5.58,5.32,7.12,8.29,15.38,11.16,23.63,.99,2.85,2.17,4.58,5.36,4.79,9.37,.62,18.46,3.41,27.91,3.51,1.95,.02,4.9-1.16,5.56,1.71,.62,2.67-1.75,3.99-4.03,4.86-2.25-.58-4.22,.56-6.27,1.1-11.9,3.08-22.86,8.89-34.79,11.94-3.34,.85-6.94,1.84-9.15,4.77-8.04,10.65-18.06,19.46-26.88,29.37-2.46,2.76-5.97,6.14-3.44,10.91Z"/><path class="cls-3" d="M423.56,340.12c-2.53-4.76,.98-8.14,3.44-10.91,8.82-9.91,18.84-18.72,26.88-29.37,2.21-2.92,5.8-3.91,9.15-4.77,11.93-3.05,22.89-8.85,34.79-11.94,2.05-.53,4.02-1.68,6.27-1.1-5.56,7.08-13.52,11.57-19.52,18.24-2.9,3.23-4.54,5.91-3.48,10.51,1.83,7.93,3.46,15.9,5.88,23.68,.29,.95,.61,1.92,.7,2.9,.45,4.71-.76,5.74-4.85,3.35-9.48-5.56-20.38-9.03-27.53-18.11-1.1-1.4-2.29-1.52-3.25-.2-7.09,9.79-18.01,13.39-28.48,17.72Z"/><path class="cls-4" d="M458.12,243.55c-3.5,.68-2.71,3.56-2.38,5.58,1.93,12.08,.5,24.11-.17,36.16-.07,1.32-.09,2.66-.36,3.95-1.35,6.41-2.42,6.96-8.74,5.65-9.59-1.98-18.43-6.33-27.87-8.72-6.84-1.73-6.87-1.62-6.12,4.96-3.68-5.87-11.31-8.13-14.02-15.25,10.99-1.66,21.79-3.35,32.73-2.99,3.87,.13,5.55-1.43,6.97-4.74,4.63-10.79,9.54-21.46,14.42-32.35,3.1,1.97,3.95,5.13,5.55,7.75Z"/><path class="cls-4" d="M415.17,292.84c5.87,2.07,9.58,6.93,12.65,11.67,1.27,1.95-1.34,6.3-1.94,9.61-.72,3.94-2.8,7.57-1.55,11.99,.83,2.93-5.8,10.5-8.59,10.84,2.89-10.32,5.85-20.62,8.6-30.97,.55-2.07-1.16-3.58-2.38-5.18-2.12-2.79-5.75-4.27-6.78-7.95Z"/><path class="cls-4" d="M412.89,291.66c.98,.11,2.15-.16,2.53,1.21-1.56,1.1-1.8-.56-2.53-1.21Z"/><path class="cls-3" d="M467.66,161.71c1.3,3.38,2.7,6.73,3.86,10.15,.47,1.37,.83,3.13-.46,4.22-1.22,1.04-2.61-.11-3.67-.67-2.92-1.55-5.82-3.2-8.48-5.15-2.77-2.04-5.08-2.56-7.77,.16-2.96,2.99-7.01,4.35-10.61,6.38-.66,.37-1.49,1-1.81-.4,1.81-5.33,6.6-8.63,8.9-13.86,2.52-5.72,9.53-6.34,14.84-8.49,3.87-1.58,1.79,3.85,4.09,4.66,0,0-.08-.09-.08-.09-.14,1.24-.34,2.49,1.18,3.1Z"/><path class="cls-1" d="M467.66,161.71c-1.52-.6-1.33-1.86-1.18-3.1,1.37,.66,1.13,1.93,1.18,3.1Z"/></svg>